<svg width="600" height="467" viewBox="0 0 600 467" fill="none" xmlns="http://www.w3.org/2000/svg">
<path d="M448.762 582.973C360.717 582.973 272.122 571.218 183.712 571.081C154.569 570.958 147.731 547.295 118.197 547.295H13.0003C-18.6854 556.767 -16.2311 474.072 -11.0952 315.393C-11.0952 230.11 -14.6434 78.8881 -0.203358 28.416C6.66899 4.3952 42.5495 0 51.2867 0C58.0927 0 80.9926 12.1351 87.4997 14.7778C95.8455 12.1351 118.497 12.1351 126.363 12.1351H165.831C198.63 12.1351 229.866 35.9199 262.46 35.9199H341.397H421.694C429.527 35.9199 457.267 28.416 466.179 35.9199C470.678 51.6439 487.963 42.624 495.885 47.36C499.631 56.4518 509.748 47.36 518.659 65.6511C535.493 52.096 536.478 57.0621 550.346 57.0621C563.424 57.0621 576.901 62.2964 589.953 65.6511C614.775 72.0304 606.786 274.063 606.786 357.016C606.786 406.586 617.922 487.42 606.786 516.041C599.75 534.123 604.142 550.237 595.898 558.24C591.482 562.528 563.217 567.16 559.152 577.026C546.885 606.803 519.857 582.973 505.469 582.973H448.762Z" fill="black"/>
</svg>
