<svg width="196" height="123" viewBox="0 0 196 123" fill="none" xmlns="http://www.w3.org/2000/svg">
<path d="M95.696 86.3986C99.7044 88.7192 101.761 94.7494 102.289 97.4744V112.77V124.528C87.2819 128.971 68.7419 128.008 56.6669 124.637V97.4744C56.6669 92.8331 59.4798 88.1566 60.8863 86.3986C39.1565 81.9682 31.7902 72.4219 30.8233 68.2026C16.4775 49.6374 24.8459 27.767 30.8233 19.1525C36.7304 11.5577 50.5136 6.49442 56.6669 4.91216C69.5359 -0.362042 92.4436 2.71458 102.289 4.91216C111.993 6.5999 122.858 15.1089 127.077 19.1525C140.368 34.5532 135.956 55.2808 132.088 63.7195C128.712 79.5421 106.42 85.4316 95.696 86.3986Z" fill="white"/>
<path fill-rule="evenodd" clip-rule="evenodd" d="M102.679 2.94997C107.897 3.86816 113.283 6.57043 117.816 9.46282C122.388 12.3803 126.262 15.6006 128.461 17.7085L128.53 17.774L128.592 17.8457C135.621 25.9911 137.939 35.5217 138.017 44.0284C138.094 52.3823 136.015 59.8648 133.996 64.3536C132.05 73.0296 125.022 78.7774 117.523 82.4281C111.693 85.2665 105.332 86.9644 100.183 87.827C100.941 88.8121 101.569 89.8668 102.083 90.8823C103.255 93.2012 103.957 95.5683 104.252 97.0943L104.289 97.2826V126.021L102.856 126.445C87.4351 131.011 68.5076 130.019 56.1291 126.563L54.6669 126.155V97.4743C54.6669 94.7737 55.4781 92.1562 56.4229 90.0399C56.7967 89.2024 57.201 88.4223 57.6033 87.7224C48.0669 85.4551 41.3931 82.1749 36.8778 78.8282C32.2368 75.3883 29.7731 71.7928 28.9908 69.0988C21.6511 59.4112 20.1337 48.8829 21.2158 39.7116C22.3046 30.4848 26.0266 22.5571 29.1801 18.0123L29.2111 17.9675L29.2446 17.9246C32.4815 13.7628 37.7359 10.4352 42.7769 7.97953C47.7925 5.53625 52.8343 3.84338 56.0367 3.00929C62.877 0.246457 72.1218 -0.272994 80.7014 0.112185C89.3705 0.50138 97.651 1.8308 102.679 2.94997ZM80.522 4.10816C72.023 3.7266 63.4417 4.29698 57.4253 6.7627L57.2981 6.81484L57.165 6.84908C54.2064 7.60985 49.3502 9.22681 44.5286 11.5756C39.683 13.936 35.11 16.9225 32.4351 20.3379C29.6171 24.4164 26.1879 31.7085 25.1883 40.1803C24.1905 48.636 25.6151 58.1916 32.4059 66.9796L32.6746 67.3274L32.7727 67.7558C33.1129 69.2399 34.8065 72.314 39.2596 75.6146C43.6597 78.8759 50.6487 82.2701 61.2858 84.4388L64.4923 85.0926L62.448 87.6479C61.8519 88.393 60.8857 89.8556 60.0754 91.6705C59.2621 93.4922 58.6669 95.5337 58.6669 97.4743V123.098C70.0434 125.963 86.557 126.706 100.289 123.014V97.6736C100.035 96.4598 99.4546 94.5496 98.5129 92.6873C97.5069 90.6977 96.2118 89.0081 94.6939 88.1294L89.241 84.9724L95.5164 84.4066C100.696 83.9396 108.703 82.2733 115.772 78.8316C122.882 75.3705 128.633 70.3276 130.132 63.3022L130.178 63.0865L130.27 62.8861C132.091 58.912 134.089 51.9099 134.017 44.065C133.946 36.2737 131.839 27.7706 125.625 20.5309C123.591 18.5922 119.957 15.5736 115.664 12.8349C111.298 10.0486 106.417 7.66014 101.946 6.88252L101.899 6.87439L101.853 6.86406C97.0311 5.78774 88.9591 4.48694 80.522 4.10816Z" fill="white"/>
<path fill-rule="evenodd" clip-rule="evenodd" d="M58.0202 28.5672C57.7617 28.6973 57.4039 28.842 56.9598 28.8975C56.9599 28.8974 56.9601 28.8974 56.9598 28.8975C56.9524 28.899 56.8395 28.922 56.6198 29.0708C56.3966 29.222 56.1384 29.4523 55.868 29.7547C55.3154 30.3726 54.8759 31.1051 54.6789 31.5687C54.2468 32.5853 53.0725 33.0591 52.0559 32.6271C51.0393 32.195 50.5655 31.0207 50.9975 30.0041C51.3726 29.1215 52.0536 28.0194 52.8866 27.0881C53.6273 26.2598 54.8069 25.2054 56.2911 24.9538C56.3131 24.9403 56.3319 24.9286 56.3566 24.9132C56.378 24.8998 56.4039 24.8837 56.4402 24.8612C56.4448 24.8584 56.4494 24.8555 56.4542 24.8526C56.7308 24.6813 57.3996 24.2673 58.3256 24.2673C58.9572 24.2673 59.5193 24.3977 59.858 24.4763L59.8758 24.4804C59.8883 24.4833 59.9005 24.4861 59.9124 24.4889C60.0847 24.5288 60.1914 24.5536 60.2924 24.572C60.3883 24.5894 60.424 24.5901 60.424 24.5901C60.424 24.5901 60.4241 24.5901 60.424 24.5901C61.1594 24.5901 61.7897 24.8637 62.2202 25.1076C62.6787 25.3673 63.0948 25.6988 63.4446 26.0315C64.0106 26.5699 64.655 27.3559 64.9756 28.1904C65.4826 28.5532 65.8131 29.147 65.8131 29.818C65.8131 30.148 65.808 30.4282 65.7963 30.6577C65.7868 30.844 65.7678 31.1364 65.6986 31.4126C65.6981 31.4146 65.6974 31.4173 65.6966 31.4206C65.6771 31.5018 65.5636 31.9747 65.1676 32.3845C64.9 32.6614 64.4051 33.0037 63.71 33.0026C63.0641 33.0016 62.6177 32.7015 62.4093 32.5266C62.0569 32.2307 61.891 31.881 61.8558 31.8066C61.8545 31.804 61.8534 31.8017 61.8525 31.7997C61.7902 31.6698 61.7465 31.5492 61.7194 31.4696C61.6244 31.1911 61.5317 30.8046 61.4633 30.5191L61.4445 30.4409C61.3702 30.1309 61.3027 29.8495 61.2364 29.6132C61.2295 29.6002 61.1987 29.5375 61.1214 29.4274C61.0119 29.2716 60.8601 29.0937 60.6876 28.9296C60.5117 28.7622 60.3556 28.6485 60.2488 28.588C60.2475 28.5873 60.2462 28.5866 60.2449 28.5859C59.762 28.5633 59.3105 28.4568 59.0468 28.3945C59.0201 28.3882 58.9952 28.3823 58.9725 28.3771C58.7614 28.3281 58.6196 28.2988 58.5125 28.283C58.5114 28.2837 58.5103 28.2843 58.5092 28.285C58.4157 28.3437 58.2189 28.4672 58.0202 28.5672Z" fill="black"/>
<path fill-rule="evenodd" clip-rule="evenodd" d="M97.9594 29.3778C97.2622 29.9179 96.6537 30.7524 95.7734 31.9628C95.1237 32.8561 93.8729 33.0536 92.9796 32.4039C92.0863 31.7542 91.8888 30.5034 92.5385 29.6101C92.5879 29.5421 92.6382 29.4728 92.6893 29.4022C93.4285 28.3823 94.3448 27.1181 95.5099 26.2156C96.8946 25.143 98.6206 24.5687 100.79 24.9631C102.189 25.2175 103.731 25.5968 104.803 26.7254C105.94 27.9218 106.162 29.5184 106.162 31.1092C106.162 32.2138 105.267 33.1092 104.162 33.1092C103.058 33.1092 102.162 32.2138 102.162 31.1092C102.162 29.7524 101.931 29.5096 101.904 29.4813L101.904 29.4807C101.815 29.3875 101.492 29.1563 100.075 28.8986C99.1074 28.7228 98.5176 28.9455 97.9594 29.3778Z" fill="black"/>
<path fill-rule="evenodd" clip-rule="evenodd" d="M61.7842 41.174C61.8102 41.7518 61.6836 42.3566 61.3541 42.9333C60.6544 44.1578 59.5999 45.1458 58.1905 45.2859C57.1507 45.3893 56.2736 44.9934 55.6509 44.4254C55.1951 44.1394 54.8628 43.6747 54.7523 43.1294C54.4701 42.4258 54.3848 41.5732 54.6981 40.7349C54.7156 40.5743 54.742 40.4084 54.7812 40.2425C54.8824 39.8135 55.0809 39.3344 55.4465 38.912C55.6984 38.0955 56.4589 37.5022 57.358 37.5022C57.5255 37.5022 57.6882 37.5228 57.8437 37.5616C58.1608 37.4885 58.5201 37.4785 58.9217 37.5678C59.5935 37.717 60.1377 38.0759 60.4877 38.3514C60.8643 38.6479 61.1967 38.9922 61.4473 39.3144C61.9912 40.0136 61.9211 40.7254 61.7842 41.174Z" fill="black"/>
<path fill-rule="evenodd" clip-rule="evenodd" d="M101.843 36.7529C102.66 37.0264 103.251 37.6694 103.484 38.4856C104.024 40.3766 103.244 42.048 101.916 42.8733C101.766 43.1268 101.582 43.3892 101.36 43.6185C101.147 43.8385 100.737 44.1974 100.125 44.3451C99.389 44.5225 98.6734 44.3219 98.1416 43.8964C98.1294 43.8867 98.1173 43.8769 98.1053 43.867C97.8954 43.8449 97.6849 43.8062 97.4772 43.7473C97.0531 43.627 96.5483 43.3946 96.1252 42.9509C95.675 42.4786 95.4215 41.8733 95.3856 41.2262C95.3212 40.0674 95.8281 39.1241 96.3983 38.484C96.4435 38.4333 96.4897 38.3837 96.5368 38.3352C96.8395 37.6854 97.4818 37.2229 98.2409 37.1815C98.2948 37.1588 98.3486 37.1371 98.4024 37.1165C98.6673 37.0152 98.9748 36.9231 99.3074 36.8662C99.4252 36.8408 99.543 36.8213 99.6598 36.8076C99.7309 36.7993 99.8055 36.7927 99.8831 36.7885C99.9564 36.7652 100.03 36.744 100.104 36.725C100.516 36.6194 101.16 36.5241 101.843 36.7529Z" fill="black"/>
<path fill-rule="evenodd" clip-rule="evenodd" d="M81.8894 31.0459C82.994 31.0459 83.8894 31.9413 83.8894 33.0459C83.8894 35.7707 84.2693 38.4257 84.6759 41.2402L84.6858 41.3088C85.0832 44.0597 85.5034 46.9683 85.5034 49.9924C85.5034 51.3184 85.3716 52.483 84.9659 53.6197C84.5611 54.7538 83.9313 55.7256 83.1284 56.7293C82.1905 57.9016 80.8232 57.8111 80.1644 57.6849C79.4495 57.5479 78.7337 57.2291 78.1984 56.9714C77.9172 56.836 77.638 56.6933 77.3894 56.5662L77.3773 56.56C77.1164 56.4267 76.8928 56.3126 76.6885 56.215C76.4808 56.1159 76.3383 56.0559 76.2448 56.0232C76.2422 56.0223 76.2397 56.0215 76.2373 56.0206C75.2098 55.9369 74.402 55.0764 74.402 54.0273C74.402 52.9227 75.2974 52.0273 76.402 52.0273C76.8766 52.0273 77.2987 52.1543 77.5644 52.2472C77.8594 52.3502 78.1529 52.4817 78.4118 52.6053C78.6706 52.7288 78.9403 52.8667 79.1875 52.9931L79.1979 52.9984C79.4573 53.131 79.6981 53.254 79.9334 53.3673C80.1468 53.47 80.3259 53.5497 80.4739 53.6098C80.8354 53.0966 81.0541 52.6801 81.1987 52.275C81.3965 51.7209 81.5034 51.054 81.5034 49.9924C81.5034 47.2771 81.1236 44.6272 80.7169 41.812L80.7089 41.7565C80.3108 39.0009 79.8894 36.0837 79.8894 33.0459C79.8894 31.9413 80.7849 31.0459 81.8894 31.0459ZM80.9619 53.7635C80.962 53.7636 80.9588 53.7633 80.9518 53.7623C80.9583 53.7629 80.9618 53.7634 80.9619 53.7635ZM76.1869 56.0052C76.1868 56.005 76.1907 56.0059 76.1989 56.0083C76.1911 56.0065 76.187 56.0053 76.1869 56.0052Z" fill="black"/>
<path fill-rule="evenodd" clip-rule="evenodd" d="M71.7466 67.0346C72.7632 66.6026 73.9375 67.0764 74.3695 68.093C75.0747 69.7523 76.0622 70.2529 76.6593 70.303C77.1905 70.3475 78.0793 70.0875 78.8098 68.6264C79.3038 67.6385 80.5051 67.238 81.4931 67.732C82.481 68.226 82.8815 69.4273 82.3875 70.4153C81.117 72.9562 78.876 74.5029 76.325 74.289C73.8401 74.0806 71.7931 72.2574 70.6882 69.6576C70.2562 68.641 70.73 67.4667 71.7466 67.0346Z" fill="black"/>
<path fill-rule="evenodd" clip-rule="evenodd" d="M67.7481 57.3061C68.7771 57.7076 69.2857 58.8673 68.8842 59.8963C68.8816 59.9029 68.8785 59.9109 68.8749 59.9201C68.7944 60.127 68.4608 60.9843 68.088 61.7338C67.9133 62.085 67.6416 62.5979 67.3076 62.9873C67.3063 62.9888 67.305 62.9903 67.3036 62.9919C67.1907 63.1237 66.7529 63.6343 66.014 63.8013C65.5339 63.9099 64.9665 63.8615 64.4501 63.55C63.988 63.2712 63.7427 62.8873 63.6203 62.6426C63.129 61.6598 63.5226 60.4659 64.4992 59.9671C64.5017 59.9623 64.5041 59.9575 64.5065 59.9525C64.7954 59.3717 65.0729 58.6601 65.1514 58.4586C65.1538 58.4527 65.1559 58.4472 65.1579 58.4422C65.5594 57.4132 66.7191 56.9045 67.7481 57.3061Z" fill="black"/>
<path fill-rule="evenodd" clip-rule="evenodd" d="M74.4359 55.8801C75.5405 55.8801 76.4359 56.7756 76.4359 57.8801V61.4261C76.4359 62.5307 75.5405 63.4261 74.4359 63.4261C73.3313 63.4261 72.4359 62.5307 72.4359 61.4261V57.8801C72.4359 56.7756 73.3313 55.8801 74.4359 55.8801Z" fill="black"/>
<path fill-rule="evenodd" clip-rule="evenodd" d="M84.7515 57.1694C85.856 57.1694 86.7515 58.0649 86.7515 59.1694C86.7515 59.3575 86.7502 59.5299 86.749 59.6905C86.7453 60.201 86.7425 60.5926 86.7835 60.9891C86.8321 61.4594 86.9308 61.7341 87.0603 61.9284C87.673 62.8475 87.4246 64.0892 86.5056 64.7019C85.5865 65.3146 84.3448 65.0663 83.7321 64.1472C83.1156 63.2225 82.8919 62.2442 82.8047 61.4006C82.7385 60.7604 82.7445 60.0752 82.7493 59.5315C82.7504 59.4019 82.7515 59.2804 82.7515 59.1694C82.7515 58.0649 83.6469 57.1694 84.7515 57.1694Z" fill="black"/>
<path fill-rule="evenodd" clip-rule="evenodd" d="M90.8952 57.6386C91.5622 56.7581 92.8166 56.5851 93.6971 57.2521C94.1755 57.6146 94.7249 58.1184 95.1975 58.5518C95.3337 58.6768 95.4636 58.7959 95.5836 58.9041C96.2248 59.4825 96.6588 59.8232 96.9298 59.9587C97.9178 60.4527 98.3182 61.654 97.8242 62.642C97.3302 63.63 96.1289 64.0304 95.1409 63.5364C94.3122 63.122 93.4987 62.4103 92.9046 61.8745C92.7124 61.7011 92.5361 61.5396 92.3724 61.3897C91.9405 60.9941 91.5968 60.6792 91.2817 60.4405C90.4012 59.7735 90.2282 58.519 90.8952 57.6386Z" fill="black"/>
<path fill-rule="evenodd" clip-rule="evenodd" d="M73.4169 4.73013C74.2845 5.41371 74.4337 6.67122 73.7502 7.53885C73.7108 7.58879 73.6717 7.63839 73.6329 7.68768C72.3286 9.34256 71.3054 10.6407 70.5123 12.3151C70.391 12.5711 70.2793 12.793 70.1701 13.0099C70.0111 13.3257 69.8574 13.6309 69.6874 14.0155C69.5626 14.2977 69.4685 14.5407 69.4079 14.7405C69.3509 14.9282 69.3445 15.0103 69.3438 15.0102C69.3437 15.0102 69.3437 15.0084 69.3437 15.0049C69.3437 16.1095 68.4483 17.0049 67.3437 17.0049C66.2391 17.0049 65.3437 16.1095 65.3437 15.0049C65.3437 14.0379 65.7463 13.0373 66.029 12.3979C66.2228 11.9597 66.4902 11.4237 66.6861 11.031C66.7765 10.8499 66.8516 10.6993 66.8973 10.6028C67.8887 8.50984 69.1674 6.88943 70.4087 5.31625C70.4754 5.23184 70.5419 5.14757 70.6082 5.06336C71.2918 4.19573 72.5493 4.04654 73.4169 4.73013Z" fill="black"/>
<path fill-rule="evenodd" clip-rule="evenodd" d="M79.5932 4.94604C80.6978 4.94604 81.5932 5.84148 81.5932 6.94604V15.0051C81.5932 16.1097 80.6978 17.0051 79.5932 17.0051C78.4886 17.0051 77.5932 16.1097 77.5932 15.0051V6.94604C77.5932 5.84148 78.4886 4.94604 79.5932 4.94604Z" fill="black"/>
<path fill-rule="evenodd" clip-rule="evenodd" d="M84.7955 6.61307C85.1576 5.56952 86.297 5.01705 87.3406 5.3791C88.6997 5.85062 89.7899 6.4119 90.7203 7.25561C91.6319 8.08226 92.267 9.07169 92.8748 10.1657C93.0324 10.4494 93.18 10.8165 93.2845 11.0812C93.3513 11.2506 93.4032 11.3851 93.4534 11.5156C93.5114 11.6661 93.5674 11.8112 93.6419 11.9983C93.7538 12.2793 93.8457 12.4938 93.9177 12.6394C94.4975 13.2321 94.668 14.1494 94.2764 14.9327C93.7824 15.9206 92.5811 16.3211 91.5931 15.8271C91.0899 15.5755 90.8022 15.1836 90.7051 15.0484C90.5672 14.8565 90.4571 14.6578 90.3752 14.4979C90.2094 14.1744 90.054 13.8001 89.9259 13.4787C89.8614 13.3167 89.7759 13.0959 89.6999 12.8997C89.6463 12.761 89.5973 12.6347 89.5639 12.5499C89.5109 12.4156 89.4665 12.3068 89.4293 12.2209C89.3937 12.1388 89.377 12.1065 89.3771 12.1064C89.3771 12.1064 89.3775 12.107 89.3782 12.1083C88.8315 11.1242 88.4512 10.5976 88.0333 10.2187C87.6342 9.85682 87.081 9.52295 86.0295 9.15812C84.9859 8.79608 84.4335 7.65662 84.7955 6.61307Z" fill="black"/>
<path d="M42.1379 93.2348C40.0689 89.5195 38.1573 85.7472 36.4336 81.8769C37.5051 83.9394 38.6988 85.9355 40.0381 87.8903C44.112 93.8361 47.5501 100.224 51.8521 106.024C53.1712 107.802 54.9016 109.691 56.0779 111.71C56.6931 112.582 57.2165 113.508 57.5067 114.374C57.6482 114.796 56.9515 113.523 56.8432 113.253C56.6331 112.73 56.3729 112.216 56.0779 111.71C55.4103 110.762 54.6347 109.877 53.9323 109.195C51.6446 106.974 49.7885 104.297 47.6134 101.965C45.2833 99.4675 43.784 96.1906 42.1379 93.2348Z" fill="white"/>
<path fill-rule="evenodd" clip-rule="evenodd" d="M34.2252 66.5401C35.4054 66.5494 36.0488 67.3881 36.3025 67.926C36.4819 68.3062 36.8604 68.8362 37.2619 69.2894C38.102 70.2375 38.8096 71.604 39.2159 72.5163C39.3464 72.8091 39.5314 73.099 39.8292 73.5655L39.832 73.5699C40.0988 73.988 40.4681 74.5671 40.7359 75.2336C41.207 76.4061 41.8405 77.5639 42.5567 78.7919C42.731 79.0907 42.9125 79.3976 43.0975 79.7102C43.6478 80.6401 44.2285 81.6214 44.7392 82.5982C46.066 85.1362 47.4885 87.707 49.0595 89.9764C50.0235 91.3689 50.9598 92.7785 51.8825 94.1752C52.1772 94.6212 52.4836 94.9671 52.8807 95.4154C53.0062 95.5571 53.1408 95.709 53.2869 95.8775C53.8575 96.5357 54.5123 97.3578 54.9893 98.495C55.3354 99.3201 55.0866 100.246 54.4383 100.795C55.241 101.592 56.1581 102.649 56.656 103.713C56.7565 103.928 57.1513 104.45 57.5388 104.887C58.033 105.445 58.3115 106.092 58.481 106.534C58.5632 106.749 58.6371 106.964 58.6968 107.138L58.7117 107.182C58.7793 107.379 58.8282 107.518 58.8754 107.636L60.3088 111.203C60.311 111.208 60.3194 111.227 60.3376 111.266C60.3405 111.272 60.3508 111.294 60.3642 111.322C60.3904 111.377 60.4286 111.458 60.4457 111.495C60.5304 111.675 60.645 111.925 60.7475 112.185C60.8386 112.416 60.9725 112.783 61.0316 113.169C61.0596 113.352 61.098 113.701 61.0089 114.103C60.9097 114.551 60.6013 115.228 59.8298 115.592C59.2684 115.857 59.0735 115.979 58.8227 116.236C58.8228 116.236 58.8229 116.236 58.8229 116.236C58.8232 116.236 58.7943 116.269 58.7214 116.361C58.6599 116.438 58.5917 116.526 58.5101 116.631C58.4803 116.669 58.4486 116.71 58.4149 116.753C58.178 117.057 57.862 117.459 57.5348 117.824C57.2541 118.138 56.7885 118.632 56.243 118.939C55.9894 119.081 55.381 119.381 54.61 119.245C53.6474 119.075 53.1188 118.377 52.8974 117.826C52.6856 117.299 52.3362 116.75 51.8526 116.083C51.7379 115.924 51.6091 115.751 51.4729 115.568C51.0945 115.059 50.6581 114.472 50.3027 113.908C49.405 112.482 48.4721 111.107 47.4953 109.667C47.4405 109.587 47.3856 109.506 47.3305 109.424C45.7525 107.098 44.0043 104.885 42.2014 102.616C42.1356 102.533 42.0697 102.45 42.0037 102.367C40.2774 100.194 38.5046 97.9626 36.8778 95.6126C36.5052 95.0744 36.1574 94.489 35.8521 93.9751C35.7809 93.8554 35.7121 93.7395 35.6458 93.6291C35.2704 93.0036 34.9432 92.4918 34.5901 92.0666C34.0061 91.3634 33.6755 90.6214 33.4426 90.0454C33.3673 89.8594 33.3045 89.6985 33.2483 89.5545C33.1084 89.1961 33.0093 88.942 32.8605 88.6649C31.2838 85.728 29.7569 82.5366 28.5022 79.4137C28.1885 78.6331 27.7916 77.8772 27.3356 77.0126L27.3187 76.9806C26.8825 76.1537 26.3919 75.2234 25.9899 74.223C25.8659 73.9144 25.7662 73.5103 25.808 73.0469C25.8518 72.5603 26.0404 72.1377 26.3023 71.8048C26.7473 71.2393 27.3496 71.0101 27.5401 70.9376C27.5417 70.937 27.5433 70.9364 27.5448 70.9359C27.5956 70.9165 27.6465 70.8983 27.6938 70.8818C28.1561 70.2927 28.8027 69.7639 29.5419 69.4669C29.913 69.3178 30.2406 69.1063 30.6464 68.7935C30.7425 68.7194 30.8613 68.6241 30.9953 68.5166C31.2971 68.2744 31.676 67.9703 32.0459 67.7081C32.0567 67.6964 32.0692 67.6829 32.0834 67.6674C32.0881 67.6623 32.0933 67.6566 32.0988 67.6505C32.1875 67.5532 32.3804 67.3418 32.6029 67.1574C32.7664 67.0217 33.3602 66.5334 34.2252 66.5401ZM35.0677 73.6699L35.2943 73.5789C35.1243 73.2403 34.9382 72.9045 34.7518 72.6084C34.7733 72.6958 34.7887 72.7835 34.7981 72.8712C34.8394 72.9969 34.8881 73.1426 34.943 73.3046C34.9829 73.4226 35.0248 73.5451 35.0677 73.6699ZM30.7864 73.4363C30.6353 73.6889 30.4553 73.8794 30.2898 74.0201C30.4712 74.3827 30.6667 74.7541 30.8736 75.1465L30.8969 75.1906C31.3307 76.013 31.8172 76.9354 32.2138 77.9225C33.405 80.8873 34.8662 83.9442 36.3848 86.7729C36.6593 87.2843 36.8798 87.8516 37.0395 88.2627C37.0806 88.3685 37.1177 88.464 37.1507 88.5455C37.3412 89.0164 37.4867 89.2936 37.6673 89.5111C37.9124 89.8061 38.1378 90.1127 38.3461 90.4181C37.0318 87.8988 35.7903 85.3452 34.631 82.7455C33.7009 80.9509 32.8615 79.1105 32.098 77.2103C31.8539 76.6026 31.4416 75.4358 31.1544 74.5877C31.0124 74.1686 30.8833 73.7754 30.8174 73.548C30.8099 73.5221 30.7986 73.4827 30.7864 73.4363ZM54.3492 112.73C54.3052 112.671 54.2621 112.612 54.2197 112.553C54.2633 112.612 54.3064 112.671 54.3492 112.73ZM28.9628 74.6761C28.9602 74.6773 28.9588 74.6778 28.9587 74.6778C28.9587 74.6778 28.96 74.6772 28.9628 74.6761Z" fill="#AAAAAA"/>
<path d="M36.0773 59.56C35.3057 61.6687 27.2405 70.4361 26.8889 72.6881C25.6692 73.1781 22.9725 72.6689 22.034 71.7579C21.6865 71.4206 21.1501 71.3007 20.7643 70.9877C20.3276 70.6333 19.9208 70.2691 19.4799 69.9152C18.1975 68.8859 17.5114 67.4475 16.4817 66.2C13.4953 62.5822 11.2054 57.1362 11.8012 52.3965C11.9258 51.4058 12.3177 50.4875 12.3994 49.4889C12.4511 48.8567 12.4004 47.9806 12.6373 47.4254C13.2873 45.9022 12.3066 44.3598 11.7317 42.9288C11.3695 42.0273 10.6064 41.1901 10.2405 40.2796C9.74959 39.0577 8.41425 38.2543 7.87836 37.0558C7.4694 36.1412 7.12822 35.1887 6.7547 34.259C6.33518 33.2148 7.49913 34.6286 7.67497 34.9562C8.41597 36.3365 10.1029 37.4251 11.247 38.5357C11.8698 39.1403 12.5709 39.83 13.3168 40.2647C13.6609 40.4653 13.7384 40.8063 14.2002 40.87C14.4086 40.8988 15.2085 41.2402 15.3734 41.3708C15.9612 41.836 16.7256 42.034 17.3239 42.5076C18.2441 43.236 19.6082 43.9289 20.6728 44.4696C22.7217 45.5102 25.5092 45.7923 27.3321 47.2355C28.8169 48.4109 30.9343 48.7712 32.3369 50.0141C33.7498 51.2661 34.3613 52.5152 35.0601 54.2546C35.6745 55.7837 36.6734 57.9311 36.0773 59.56Z" fill="white"/>
<path fill-rule="evenodd" clip-rule="evenodd" d="M8.97168 33.3279C9.1019 33.494 9.30387 33.762 9.4371 34.0102C9.63187 34.373 10.0125 34.7966 10.6375 35.3514C10.8083 35.503 11.0299 35.6904 11.2711 35.8944C11.7272 36.2803 12.2536 36.7255 12.64 37.1006C13.3155 37.7564 13.8323 38.2503 14.3239 38.5368C14.5915 38.6928 14.7877 38.8643 14.9189 38.9909C15.0065 39.0178 15.0763 39.0427 15.1173 39.0573L15.1196 39.0581C15.2735 39.113 15.437 39.1782 15.5881 39.2427C15.7393 39.3073 15.8995 39.3801 16.0456 39.4533L16.0478 39.4544C16.1415 39.5013 16.3939 39.6277 16.6148 39.8027C16.7126 39.8801 16.8523 39.957 17.2271 40.1413C17.2414 40.1482 17.256 40.1555 17.2712 40.1629C17.5853 40.317 18.0943 40.5666 18.5653 40.9395C19.2955 41.5176 20.4586 42.1176 21.5785 42.6864C22.2426 43.0237 22.9881 43.2578 23.9215 43.551C24.1677 43.6283 24.427 43.7097 24.7013 43.7982C25.8921 44.1824 27.3541 44.702 28.5735 45.6674C29.0742 46.0637 29.7122 46.3464 30.6719 46.7693L30.6866 46.7758C31.5403 47.152 32.699 47.6627 33.6633 48.5173C35.4278 50.0809 36.1807 51.679 36.9159 53.509C36.9606 53.6201 37.0105 53.7419 37.0641 53.8724C37.3386 54.5417 37.7089 55.4443 37.9532 56.3476C38.2419 57.4146 38.467 58.8496 37.9555 60.2473C37.7722 60.7484 37.446 61.2834 37.1433 61.7408C36.8152 62.2367 36.4074 62.7984 35.9623 63.3885C35.2792 64.2942 34.4606 65.3293 33.6348 66.3734C33.3882 66.6853 33.1409 66.9979 32.8965 67.3082C31.8167 68.6784 30.7849 70.0097 30.0045 71.1279C29.6137 71.6878 29.3095 72.1611 29.1005 72.5366C28.9095 72.8798 28.8642 73.0262 28.861 73.0253C28.8607 73.0252 28.8607 73.0242 28.8609 73.0221L28.6895 74.12L27.6345 74.5439C26.4895 75.0039 25.05 74.9167 23.9815 74.713C22.9383 74.5141 21.5883 74.0787 20.6924 73.242C20.6687 73.2289 20.6186 73.2017 20.5294 73.1577C20.5176 73.1518 20.5042 73.1453 20.4895 73.1381C20.3962 73.0924 20.2511 73.0213 20.1122 72.9448C19.9419 72.8511 19.7252 72.7201 19.5041 72.5408C19.2793 72.3583 19.0634 72.1749 18.8668 72.0078L18.8288 71.9755C18.6162 71.7949 18.4239 71.6322 18.2279 71.4749L19.4799 69.9152L18.2279 71.4749C17.3717 70.7876 16.7531 69.9937 16.2591 69.3026C16.0797 69.0516 15.9246 68.8272 15.7809 68.6191C15.4901 68.1983 15.2455 67.8443 14.9393 67.4733C11.731 63.5867 9.1305 57.6064 9.81687 52.1471C9.89163 51.5524 10.039 50.9867 10.15 50.5605C10.1604 50.5206 10.1705 50.482 10.1802 50.4446C10.3054 49.9606 10.3809 49.6335 10.4061 49.3258C10.4146 49.2216 10.4199 49.0936 10.4263 48.9087C10.4268 48.8935 10.4273 48.8779 10.4279 48.8619C10.4334 48.7003 10.4402 48.5007 10.4529 48.3012C10.4781 47.9065 10.536 47.2539 10.7978 46.6404C10.8608 46.4928 10.899 46.2645 10.7348 45.7388C10.6515 45.4721 10.5325 45.181 10.3765 44.8264C10.3405 44.7445 10.3006 44.6552 10.2585 44.5609C10.136 44.2866 9.9947 43.9702 9.87584 43.6744C9.77972 43.4352 9.61314 43.1655 9.30796 42.6935C9.29714 42.6768 9.28607 42.6597 9.2748 42.6423C9.0153 42.2414 8.64114 41.6635 8.38472 41.0252C8.29689 40.8066 8.10422 40.5574 7.60306 40.0115C7.57664 39.9827 7.54886 39.9526 7.51989 39.9213C7.10661 39.4736 6.4512 38.7637 6.05256 37.8722L7.0373 37.4318L6.05256 37.8722C5.75939 37.2165 5.48218 36.5008 5.22947 35.8484C5.11387 35.55 5.0034 35.2648 4.89888 35.0046C4.83409 34.8434 4.72599 34.5583 4.68367 34.2367C4.6655 34.0986 4.62271 33.7129 4.77497 33.2645C4.97763 32.6676 5.51114 32.0572 6.35492 31.9108C6.96726 31.8046 7.43701 32.0084 7.5789 32.0734C7.77447 32.1628 7.9223 32.2656 8.00518 32.3269C8.17677 32.454 8.32046 32.5925 8.41479 32.6881C8.61611 32.892 8.81618 33.1297 8.97168 33.3279ZM13.8825 42.866C13.9307 42.9738 13.9821 43.0889 14.0378 43.2154C14.207 43.6001 14.4004 44.058 14.5529 44.5462C14.8583 45.5239 15.0611 46.8176 14.4883 48.1832C14.4861 48.1924 14.4825 48.2088 14.4783 48.2334C14.4658 48.3058 14.4542 48.409 14.4449 48.5553C14.4361 48.6933 14.4312 48.8353 14.4252 49.008L14.4239 49.047C14.4178 49.2215 14.4101 49.4401 14.3927 49.6519C14.3362 50.3428 14.1749 50.9742 14.0526 51.4467L14.0367 51.5082C13.9109 51.9939 13.8267 52.3192 13.7856 52.646C13.2802 56.666 15.2595 61.5778 18.0241 64.9268C18.4436 65.4351 18.8448 66.015 19.1783 66.4972C19.2996 66.6726 19.412 66.835 19.513 66.9763C19.94 67.5736 20.3057 68.0135 20.7318 68.3555C20.9767 68.5521 21.2083 68.7485 21.4185 68.927L21.4476 68.9517C21.649 69.1229 21.8306 69.2771 22.0162 69.4279C22.0181 69.4279 22.0688 69.457 22.2976 69.5697C22.3053 69.5735 22.3134 69.5775 22.3218 69.5816C22.5387 69.6882 23.0135 69.9214 23.4271 70.3228C23.4245 70.3204 23.4251 70.3208 23.4293 70.3238C23.4493 70.3383 23.5527 70.4131 23.7859 70.5102C24.0444 70.6178 24.3727 70.7155 24.7305 70.7837C24.984 70.8321 25.2305 70.8614 25.4539 70.8728C25.5049 70.7743 25.5559 70.6802 25.6054 70.5912C25.9078 70.048 26.2974 69.4504 26.7243 68.8387C27.5791 67.6138 28.6777 66.1992 29.7547 64.8325C30.0117 64.5064 30.2672 64.1833 30.5188 63.8651C31.3381 62.8291 32.1161 61.8453 32.7688 60.9799C33.1938 60.4164 33.5454 59.9296 33.8074 59.5336C33.9381 59.3361 34.0369 59.1756 34.1075 59.05C34.1698 58.9392 34.1942 58.8836 34.1987 58.8733C34.1997 58.8711 34.1997 58.871 34.1991 58.8727C34.2837 58.6415 34.3074 58.1883 34.092 57.3921C33.9193 56.7537 33.6651 56.1311 33.3924 55.4635C33.3304 55.3116 33.2675 55.1575 33.2043 55.0003C32.5418 53.3514 32.0717 52.4514 31.0104 51.5109C30.5778 51.1275 29.9843 50.8375 29.0587 50.4296C29.0039 50.4055 28.9476 50.3807 28.8899 50.3554C28.0834 50.0017 27.0091 49.5306 26.0908 48.8036C25.4872 48.3258 24.644 47.9828 23.4731 47.605C23.2851 47.5443 23.0841 47.4817 22.8739 47.4161C21.9133 47.1166 20.7596 46.7569 19.7672 46.2528C19.7395 46.2388 19.7114 46.2245 19.683 46.2101C18.6723 45.697 17.1622 44.9304 16.0825 44.0757C15.978 43.993 15.8321 43.9127 15.4623 43.7309C15.4463 43.723 15.4297 43.7149 15.4125 43.7064C15.1269 43.5665 14.6758 43.3453 14.2439 43.0246C14.1875 42.9967 14.108 42.9601 14.0181 42.9217C13.9697 42.9011 13.9238 42.8823 13.8825 42.866ZM8.59598 33.4744C8.59622 33.4746 8.59845 33.4805 8.60196 33.4915C8.5975 33.4797 8.59575 33.4742 8.59598 33.4744ZM5.5515 35.4819C5.55149 35.4818 5.55292 35.4831 5.55584 35.4859C5.55298 35.4833 5.55152 35.4819 5.5515 35.4819Z" fill="#AAAAAA"/>
<path fill-rule="evenodd" clip-rule="evenodd" d="M15.9937 45.0369C17.0187 44.6251 18.1834 45.1221 18.5952 46.1471C18.8763 46.8469 19.3316 47.5409 19.9372 48.3382C20.1159 48.5736 20.3244 48.8379 20.5455 49.1182C20.9927 49.685 21.4916 50.3175 21.901 50.9088C22.4183 51.6561 23.2067 52.5726 24.0965 53.3963C25.0041 54.2364 25.8959 54.8672 26.6032 55.1691C26.7122 55.2156 26.8389 55.2676 26.9783 55.325C27.5353 55.554 28.297 55.8673 28.9553 56.2457C29.8063 56.7349 30.8471 57.5217 31.3732 58.8311C31.434 58.9825 31.4878 59.0987 31.5579 59.2503C31.6107 59.3644 31.6728 59.4986 31.7541 59.6829C31.905 60.0249 32.1007 60.4997 32.2087 61.0267C32.5284 62.5866 32.4036 64.1099 32.3041 65.3235C32.3004 65.3688 32.2967 65.4136 32.2931 65.458C32.1848 66.7873 32.1224 67.7774 32.3308 68.7232C32.5685 69.8019 31.8867 70.869 30.808 71.1067C29.7293 71.3444 28.6622 70.6626 28.4245 69.5839C28.0733 67.99 28.2 66.436 28.3008 65.201L28.3063 65.1333C28.4155 63.7929 28.4877 62.7935 28.2901 61.8299C28.2709 61.7358 28.2187 61.5791 28.0946 61.2978C28.0691 61.24 28.032 61.159 27.989 61.0651C27.8873 60.8432 27.7528 60.5494 27.6615 60.3223C27.6224 60.2249 27.4839 60.0137 26.9618 59.7136C26.5543 59.4793 26.129 59.3036 25.6119 59.0899C25.4312 59.0153 25.2394 58.936 25.0332 58.848C23.7263 58.2903 22.445 57.3183 21.3792 56.3317C20.2957 55.3286 19.3104 54.1942 18.6121 53.1855C18.2648 52.6838 17.9169 52.2443 17.5289 51.7542C17.2884 51.4504 17.0325 51.1272 16.7518 50.7576C16.0837 49.878 15.3675 48.8429 14.8835 47.6383C14.4717 46.6133 14.9688 45.4486 15.9937 45.0369Z" fill="#AAAAAA"/>
<path d="M185.665 86.3986C189.674 88.7192 191.731 94.7494 192.258 97.4744V112.77V124.528C177.251 128.971 158.711 128.008 146.636 124.637V97.4744C146.636 92.8331 149.449 88.1566 150.856 86.3986C129.126 81.9682 121.76 72.4219 120.793 68.2026C106.447 49.6374 114.815 27.767 120.793 19.1525C126.7 11.5577 140.483 6.49442 146.636 4.91216C159.505 -0.362042 182.413 2.71458 192.258 4.91216C201.963 6.5999 212.828 15.1089 217.047 19.1525C230.338 34.5532 225.925 55.2808 222.057 63.7195C218.682 79.5421 196.39 85.4316 185.665 86.3986Z" fill="white"/>
<path fill-rule="evenodd" clip-rule="evenodd" d="M192.648 2.94997C197.867 3.86816 203.252 6.57043 207.785 9.46282C212.358 12.3803 216.231 15.6006 218.431 17.7085L218.499 17.774L218.561 17.8457C225.591 25.9911 227.909 35.5217 227.987 44.0284C228.063 52.3823 225.984 59.8648 223.966 64.3536C222.02 73.0296 214.992 78.7774 207.493 82.4281C201.662 85.2665 195.302 86.9644 190.153 87.827C190.91 88.8121 191.539 89.8668 192.052 90.8823C193.225 93.2012 193.926 95.5683 194.222 97.0943L194.258 97.2826V126.021L192.826 126.445C177.405 131.011 158.477 130.019 146.099 126.563L144.636 126.155V97.4743C144.636 94.7737 145.448 92.1562 146.392 90.0399C146.766 89.2024 147.171 88.4223 147.573 87.7224C138.036 85.4551 131.363 82.1749 126.847 78.8282C122.206 75.3883 119.743 71.7928 118.96 69.0988C111.621 59.4112 110.103 48.8829 111.185 39.7116C112.274 30.4848 115.996 22.5571 119.15 18.0123L119.181 17.9675L119.214 17.9246C122.451 13.7628 127.705 10.4352 132.746 7.97953C137.762 5.53625 142.804 3.84338 146.006 3.00929C152.846 0.246457 162.091 -0.272994 170.671 0.112185C179.34 0.50138 187.62 1.8308 192.648 2.94997ZM170.492 4.10816C161.993 3.7266 153.411 4.29698 147.395 6.7627L147.268 6.81484L147.134 6.84908C144.176 7.60985 139.32 9.22681 134.498 11.5756C129.652 13.936 125.079 16.9225 122.405 20.3379C119.587 24.4164 116.157 31.7085 115.158 40.1803C114.16 48.636 115.585 58.1916 122.375 66.9796L122.644 67.3274L122.742 67.7558C123.082 69.2399 124.776 72.314 129.229 75.6146C133.629 78.8759 140.618 82.2701 151.255 84.4388L154.462 85.0926L152.417 87.6479C151.821 88.393 150.855 89.8556 150.045 91.6705C149.232 93.4922 148.636 95.5337 148.636 97.4743V123.098C160.013 125.963 176.527 126.706 190.258 123.014V97.6736C190.004 96.4598 189.424 94.5496 188.482 92.6873C187.476 90.6977 186.181 89.0081 184.663 88.1294L179.21 84.9724L185.486 84.4066C190.665 83.9396 198.672 82.2733 205.742 78.8316C212.851 75.3705 218.603 70.3276 220.101 63.3022L220.147 63.0865L220.239 62.8861C222.061 58.912 224.059 51.9099 223.987 44.065C223.915 36.2737 221.808 27.7706 215.595 20.5309C213.561 18.5922 209.926 15.5736 205.634 12.8349C201.267 10.0486 196.387 7.66014 191.916 6.88252L191.869 6.87439L191.822 6.86406C187.001 5.78774 178.929 4.48694 170.492 4.10816Z" fill="white"/>
<path fill-rule="evenodd" clip-rule="evenodd" d="M147.99 28.5672C147.731 28.6973 147.373 28.842 146.929 28.8975C146.929 28.8974 146.93 28.8974 146.929 28.8975C146.922 28.899 146.809 28.922 146.589 29.0708C146.366 29.222 146.108 29.4523 145.838 29.7547C145.285 30.3726 144.845 31.1051 144.648 31.5687C144.216 32.5853 143.042 33.0591 142.025 32.6271C141.009 32.195 140.535 31.0207 140.967 30.0041C141.342 29.1215 142.023 28.0194 142.856 27.0881C143.597 26.2598 144.776 25.2054 146.261 24.9538C146.283 24.9403 146.301 24.9286 146.326 24.9132C146.348 24.8998 146.373 24.8837 146.41 24.8612C146.414 24.8584 146.419 24.8555 146.424 24.8526C146.7 24.6813 147.369 24.2673 148.295 24.2673C148.927 24.2673 149.489 24.3977 149.827 24.4763L149.845 24.4804C149.858 24.4833 149.87 24.4861 149.882 24.4889C150.054 24.5288 150.161 24.5536 150.262 24.572C150.358 24.5894 150.393 24.5901 150.393 24.5901C150.393 24.5901 150.394 24.5901 150.393 24.5901C151.129 24.5901 151.759 24.8637 152.19 25.1076C152.648 25.3673 153.064 25.6988 153.414 26.0315C153.98 26.5699 154.625 27.3559 154.945 28.1904C155.452 28.5532 155.783 29.147 155.783 29.818C155.783 30.148 155.778 30.4282 155.766 30.6577C155.756 30.844 155.737 31.1364 155.668 31.4126C155.668 31.4146 155.667 31.4173 155.666 31.4206C155.647 31.5018 155.533 31.9747 155.137 32.3845C154.869 32.6614 154.375 33.0037 153.68 33.0026C153.034 33.0016 152.587 32.7015 152.379 32.5266C152.026 32.2307 151.861 31.881 151.825 31.8066C151.824 31.804 151.823 31.8017 151.822 31.7997C151.76 31.6698 151.716 31.5492 151.689 31.4696C151.594 31.1911 151.501 30.8046 151.433 30.5191L151.414 30.4409C151.34 30.1309 151.272 29.8495 151.206 29.6132C151.199 29.6002 151.168 29.5375 151.091 29.4274C150.981 29.2716 150.83 29.0937 150.657 28.9296C150.481 28.7622 150.325 28.6485 150.218 28.588C150.217 28.5873 150.216 28.5866 150.214 28.5859C149.731 28.5633 149.28 28.4568 149.016 28.3945C148.99 28.3882 148.965 28.3823 148.942 28.3771C148.731 28.3281 148.589 28.2988 148.482 28.283C148.481 28.2837 148.48 28.2843 148.479 28.285C148.385 28.3437 148.188 28.4672 147.99 28.5672Z" fill="black"/>
<path fill-rule="evenodd" clip-rule="evenodd" d="M187.929 29.3778C187.232 29.9179 186.623 30.7524 185.743 31.9628C185.093 32.8561 183.842 33.0536 182.949 32.4039C182.056 31.7542 181.858 30.5034 182.508 29.6101C182.557 29.5421 182.608 29.4728 182.659 29.4022C183.398 28.3823 184.314 27.1181 185.479 26.2156C186.864 25.143 188.59 24.5687 190.76 24.9631C192.159 25.2175 193.7 25.5968 194.773 26.7254C195.91 27.9218 196.132 29.5184 196.132 31.1092C196.132 32.2138 195.237 33.1092 194.132 33.1092C193.027 33.1092 192.132 32.2138 192.132 31.1092C192.132 29.7524 191.901 29.5096 191.874 29.4813L191.873 29.4807C191.785 29.3875 191.461 29.1563 190.044 28.8986C189.077 28.7228 188.487 28.9455 187.929 29.3778Z" fill="black"/>
<path fill-rule="evenodd" clip-rule="evenodd" d="M151.754 41.174C151.78 41.7518 151.653 42.3566 151.324 42.9333C150.624 44.1578 149.569 45.1458 148.16 45.2859C147.12 45.3893 146.243 44.9934 145.62 44.4254C145.165 44.1394 144.832 43.6747 144.722 43.1294C144.44 42.4258 144.354 41.5732 144.668 40.7349C144.685 40.5743 144.711 40.4084 144.751 40.2425C144.852 39.8135 145.05 39.3344 145.416 38.912C145.668 38.0955 146.428 37.5022 147.328 37.5022C147.495 37.5022 147.658 37.5228 147.813 37.5616C148.13 37.4885 148.49 37.4785 148.891 37.5678C149.563 37.717 150.107 38.0759 150.457 38.3514C150.834 38.6479 151.166 38.9922 151.417 39.3144C151.961 40.0136 151.891 40.7254 151.754 41.174Z" fill="black"/>
<path fill-rule="evenodd" clip-rule="evenodd" d="M191.813 36.7529C192.63 37.0264 193.22 37.6694 193.453 38.4856C193.994 40.3766 193.214 42.048 191.885 42.8733C191.736 43.1268 191.552 43.3892 191.329 43.6185C191.116 43.8385 190.707 44.1974 190.094 44.3451C189.359 44.5225 188.643 44.3219 188.111 43.8964C188.099 43.8867 188.087 43.8769 188.075 43.867C187.865 43.8449 187.654 43.8062 187.447 43.7473C187.023 43.627 186.518 43.3946 186.095 42.9509C185.645 42.4786 185.391 41.8733 185.355 41.2262C185.291 40.0674 185.798 39.1241 186.368 38.484C186.413 38.4333 186.459 38.3837 186.506 38.3352C186.809 37.6854 187.451 37.2229 188.21 37.1815C188.264 37.1588 188.318 37.1371 188.372 37.1165C188.637 37.0152 188.944 36.9231 189.277 36.8662C189.395 36.8408 189.513 36.8213 189.629 36.8076C189.7 36.7993 189.775 36.7927 189.853 36.7885C189.926 36.7652 190 36.744 190.074 36.725C190.485 36.6194 191.129 36.5241 191.813 36.7529Z" fill="black"/>
<path fill-rule="evenodd" clip-rule="evenodd" d="M171.859 31.0459C172.963 31.0459 173.859 31.9413 173.859 33.0459C173.859 35.7707 174.238 38.4257 174.645 41.2402L174.655 41.3088C175.052 44.0597 175.472 46.9683 175.472 49.9924C175.472 51.3184 175.341 52.483 174.935 53.6197C174.53 54.7538 173.9 55.7256 173.097 56.7293C172.16 57.9016 170.792 57.8111 170.134 57.6849C169.419 57.5479 168.703 57.2291 168.168 56.9714C167.886 56.836 167.607 56.6933 167.359 56.5662L167.346 56.56C167.086 56.4267 166.862 56.3126 166.658 56.215C166.45 56.1159 166.307 56.0559 166.214 56.0232C166.211 56.0223 166.209 56.0215 166.206 56.0206C165.179 55.9369 164.371 55.0764 164.371 54.0273C164.371 52.9227 165.267 52.0273 166.371 52.0273C166.846 52.0273 167.268 52.1543 167.534 52.2472C167.829 52.3502 168.122 52.4817 168.381 52.6053C168.64 52.7288 168.909 52.8667 169.157 52.9931L169.167 52.9984C169.426 53.131 169.667 53.254 169.902 53.3673C170.116 53.47 170.295 53.5497 170.443 53.6098C170.805 53.0966 171.023 52.6801 171.168 52.275C171.366 51.7209 171.472 51.054 171.472 49.9924C171.472 47.2771 171.093 44.6272 170.686 41.812L170.678 41.7565C170.28 39.0009 169.859 36.0837 169.859 33.0459C169.859 31.9413 170.754 31.0459 171.859 31.0459ZM170.931 53.7635C170.931 53.7636 170.928 53.7633 170.921 53.7623C170.927 53.7629 170.931 53.7634 170.931 53.7635ZM166.156 56.0052C166.156 56.005 166.16 56.0059 166.168 56.0083C166.16 56.0065 166.156 56.0053 166.156 56.0052Z" fill="black"/>
<path fill-rule="evenodd" clip-rule="evenodd" d="M161.716 67.0346C162.733 66.6026 163.907 67.0764 164.339 68.093C165.044 69.7523 166.032 70.2529 166.629 70.303C167.16 70.3475 168.049 70.0875 168.779 68.6264C169.273 67.6385 170.475 67.238 171.463 67.732C172.451 68.226 172.851 69.4273 172.357 70.4153C171.087 72.9562 168.846 74.5029 166.295 74.289C163.81 74.0806 161.763 72.2574 160.658 69.6576C160.226 68.641 160.699 67.4667 161.716 67.0346Z" fill="black"/>
<path fill-rule="evenodd" clip-rule="evenodd" d="M157.718 57.3061C158.747 57.7076 159.255 58.8673 158.854 59.8963C158.851 59.9029 158.848 59.9109 158.844 59.9201C158.764 60.127 158.43 60.9843 158.058 61.7338C157.883 62.085 157.611 62.5979 157.277 62.9873C157.276 62.9888 157.274 62.9903 157.273 62.9919C157.16 63.1237 156.722 63.6343 155.983 63.8013C155.503 63.9099 154.936 63.8615 154.42 63.55C153.957 63.2712 153.712 62.8873 153.59 62.6426C153.098 61.6598 153.492 60.4659 154.469 59.9671C154.471 59.9623 154.474 59.9575 154.476 59.9525C154.765 59.3717 155.042 58.6601 155.121 58.4586C155.123 58.4527 155.125 58.4472 155.127 58.4422C155.529 57.4132 156.689 56.9045 157.718 57.3061Z" fill="black"/>
<path fill-rule="evenodd" clip-rule="evenodd" d="M164.405 55.8801C165.51 55.8801 166.405 56.7756 166.405 57.8801V61.4261C166.405 62.5307 165.51 63.4261 164.405 63.4261C163.301 63.4261 162.405 62.5307 162.405 61.4261V57.8801C162.405 56.7756 163.301 55.8801 164.405 55.8801Z" fill="black"/>
<path fill-rule="evenodd" clip-rule="evenodd" d="M174.721 57.1694C175.826 57.1694 176.721 58.0649 176.721 59.1694C176.721 59.3575 176.72 59.5299 176.719 59.6905C176.715 60.201 176.712 60.5926 176.753 60.9891C176.802 61.4594 176.9 61.7341 177.03 61.9284C177.642 62.8475 177.394 64.0892 176.475 64.7019C175.556 65.3146 174.314 65.0663 173.702 64.1472C173.085 63.2225 172.861 62.2442 172.774 61.4006C172.708 60.7604 172.714 60.0752 172.719 59.5315C172.72 59.4019 172.721 59.2804 172.721 59.1694C172.721 58.0649 173.616 57.1694 174.721 57.1694Z" fill="black"/>
<path fill-rule="evenodd" clip-rule="evenodd" d="M180.865 57.6386C181.532 56.7581 182.786 56.5851 183.667 57.2521C184.145 57.6146 184.695 58.1184 185.167 58.5518C185.304 58.6768 185.433 58.7959 185.553 58.9041C186.195 59.4825 186.629 59.8232 186.9 59.9587C187.888 60.4527 188.288 61.654 187.794 62.642C187.3 63.63 186.099 64.0304 185.111 63.5364C184.282 63.122 183.469 62.4103 182.874 61.8745C182.682 61.7011 182.506 61.5396 182.342 61.3897C181.91 60.9941 181.567 60.6792 181.252 60.4405C180.371 59.7735 180.198 58.519 180.865 57.6386Z" fill="black"/>
<path fill-rule="evenodd" clip-rule="evenodd" d="M163.387 4.73013C164.254 5.41371 164.404 6.67122 163.72 7.53885C163.681 7.58879 163.642 7.63839 163.603 7.68768C162.298 9.34256 161.275 10.6407 160.482 12.3151C160.361 12.5711 160.249 12.793 160.14 13.0099C159.981 13.3257 159.827 13.6309 159.657 14.0155C159.532 14.2977 159.438 14.5407 159.378 14.7405C159.321 14.9282 159.314 15.0103 159.314 15.0102C159.314 15.0102 159.314 15.0084 159.314 15.0049C159.314 16.1095 158.418 17.0049 157.314 17.0049C156.209 17.0049 155.314 16.1095 155.314 15.0049C155.314 14.0379 155.716 13.0373 155.999 12.3979C156.193 11.9597 156.46 11.4237 156.656 11.031C156.746 10.8499 156.821 10.6993 156.867 10.6028C157.859 8.50984 159.137 6.88943 160.379 5.31625C160.445 5.23184 160.512 5.14757 160.578 5.06336C161.262 4.19573 162.519 4.04654 163.387 4.73013Z" fill="black"/>
<path fill-rule="evenodd" clip-rule="evenodd" d="M169.563 4.94604C170.667 4.94604 171.563 5.84148 171.563 6.94604V15.0051C171.563 16.1097 170.667 17.0051 169.563 17.0051C168.458 17.0051 167.563 16.1097 167.563 15.0051V6.94604C167.563 5.84148 168.458 4.94604 169.563 4.94604Z" fill="black"/>
<path fill-rule="evenodd" clip-rule="evenodd" d="M174.765 6.61307C175.127 5.56952 176.267 5.01705 177.31 5.3791C178.669 5.85062 179.759 6.4119 180.69 7.25561C181.601 8.08226 182.237 9.07169 182.844 10.1657C183.002 10.4494 183.15 10.8165 183.254 11.0812C183.321 11.2506 183.373 11.3851 183.423 11.5156C183.481 11.6661 183.537 11.8112 183.611 11.9983C183.723 12.2793 183.815 12.4938 183.887 12.6394C184.467 13.2321 184.638 14.1494 184.246 14.9327C183.752 15.9206 182.551 16.3211 181.563 15.8271C181.059 15.5755 180.772 15.1836 180.675 15.0484C180.537 14.8565 180.427 14.6578 180.345 14.4979C180.179 14.1744 180.023 13.8001 179.895 13.4787C179.831 13.3167 179.745 13.0959 179.669 12.8997C179.616 12.761 179.567 12.6347 179.533 12.5499C179.48 12.4156 179.436 12.3068 179.399 12.2209C179.363 12.1388 179.346 12.1065 179.347 12.1064C179.347 12.1064 179.347 12.107 179.348 12.1083C178.801 11.1242 178.421 10.5976 178.003 10.2187C177.604 9.85682 177.051 9.52295 175.999 9.15812C174.955 8.79608 174.403 7.65662 174.765 6.61307Z" fill="black"/>
<path d="M107.837 138.02C121.335 138.02 135.228 139.295 148.619 137.344C149.252 135.752 154.117 134.949 155.615 134.113C157.89 132.842 160.703 132.439 162.881 130.919C164.324 129.911 168.332 129.228 169.877 129.228C171.129 129.228 174.874 128.474 176.066 127.725C178.458 126.222 173.043 127.875 171.761 127.875C169.213 127.875 166.888 127.961 164.465 128.514C162.275 129.014 159.255 129.755 157.23 129.904C156.059 129.991 154.76 130.113 153.881 131.107C153.258 131.811 152.283 133.786 151.818 132.91C151.317 131.965 151.657 129.848 151.041 129.228C150.404 128.588 149.695 127.181 149.695 126.184C149.695 124.87 147.834 119.924 147.124 118.933C145.386 116.506 145.099 112.574 143.476 109.952C141.835 107.301 138.926 103.779 137.975 100.672C137.27 98.3674 135.749 96.923 134.626 94.8851C133.623 93.0633 132.637 90.8828 131.397 89.3241C129.271 86.6516 127.608 83.8546 125.208 81.5087C122.79 79.145 122.295 78.5028 119.019 78.5028C116.869 78.5028 113.843 77.8008 111.784 78.5404C107.32 80.1429 102.315 79.5188 97.4919 79.8555C91.805 80.2525 86.9105 83.7214 81.6156 86.2806C77.501 88.2694 72.6272 88.7542 68.6694 91.015C65.9435 92.5722 63.1662 93.235 60.238 93.3822C58.4551 93.4718 61.6949 97.8952 62.2412 99.131C63.3771 101.701 64.6803 104.243 65.859 106.909C68.7381 113.422 74.6722 118.202 78.3567 124.155C81.8635 129.822 86.9795 133.155 91.8709 136.668C95.9865 139.623 103.125 138.02 107.837 138.02Z" fill="#AAAAAA"/>
<path fill-rule="evenodd" clip-rule="evenodd" d="M115.238 80.2401C113.98 80.1586 113.071 80.2033 112.459 80.4227C109.937 81.3285 107.326 81.5825 104.844 81.6713C103.764 81.71 102.762 81.7188 101.79 81.7273C100.392 81.7395 99.0544 81.7512 97.6312 81.8506C95.1493 82.0239 92.7664 82.8722 90.2668 84.0628C89.0173 84.6581 87.7713 85.3222 86.4737 86.0164L86.3559 86.0794C85.1079 86.7471 83.8117 87.4406 82.486 88.0813C80.443 89.0688 78.2396 89.71 76.2254 90.2962C76.0304 90.3529 75.8371 90.4092 75.6459 90.4652C73.408 91.1206 71.4115 91.752 69.6615 92.7516C67.2448 94.1321 64.7972 94.8757 62.2991 95.2039C62.5621 95.6896 62.8662 96.2003 63.1636 96.6976C63.1859 96.7349 63.2085 96.7727 63.2315 96.8111C63.5324 97.3137 63.8847 97.9021 64.0704 98.3223C64.6215 99.5689 65.2148 100.813 65.8285 102.1L65.8393 102.123C66.4528 103.409 67.0855 104.737 67.6882 106.1C69.0047 109.078 71.0456 111.717 73.3397 114.458C73.7032 114.893 74.0747 115.332 74.4503 115.775C76.3874 118.063 78.4329 120.478 80.0573 123.103C83.0299 127.906 87.2341 130.903 91.7569 134.128C92.1812 134.43 92.6084 134.735 93.0375 135.043C94.5444 136.125 96.7948 136.483 99.6086 136.452C100.979 136.437 102.379 136.335 103.784 136.23L103.876 136.223C105.221 136.123 106.597 136.02 107.837 136.02C111.767 136.02 115.681 136.124 119.574 136.227C129.019 136.477 138.344 136.724 147.509 135.48C147.938 135.043 148.43 134.738 148.806 134.532C149.211 134.31 149.654 134.112 150.1 133.935C150.082 133.905 150.066 133.875 150.051 133.847L151.818 132.91L150.051 133.847C149.76 133.298 149.649 132.709 149.591 132.303C149.54 131.937 149.511 131.544 149.488 131.235C149.485 131.187 149.481 131.141 149.478 131.097C149.454 130.773 149.433 130.558 149.406 130.406C148.968 129.903 148.591 129.28 148.313 128.678C147.997 127.992 147.695 127.089 147.695 126.184C147.695 126.216 147.696 126.146 147.652 125.926C147.613 125.729 147.551 125.476 147.467 125.175C147.299 124.573 147.061 123.851 146.796 123.121C146.531 122.392 146.248 121.681 145.995 121.104C145.868 120.816 145.753 120.573 145.657 120.385C145.609 120.291 145.57 120.218 145.539 120.164C145.506 120.109 145.493 120.09 145.497 120.096C144.405 118.571 143.818 116.655 143.344 115.099L143.314 114.999C142.81 113.345 142.408 112.026 141.776 111.005C141.316 110.261 140.806 109.526 140.244 108.714C139.795 108.066 139.313 107.369 138.795 106.581C137.73 104.96 136.627 103.101 136.062 101.257C135.795 100.384 135.366 99.6394 134.798 98.7956C134.667 98.6004 134.52 98.3896 134.364 98.1656C133.893 97.4892 133.339 96.6934 132.874 95.8501C132.554 95.2687 132.259 94.7025 131.975 94.158C131.261 92.7895 130.619 91.5586 129.832 90.5695C129.075 89.6185 128.356 88.6257 127.675 87.6866C127.375 87.2724 127.082 86.8686 126.797 86.4834C125.836 85.1842 124.895 83.9996 123.81 82.939C123.747 82.8773 123.686 82.8175 123.627 82.7595C122.442 81.6013 121.98 81.1494 121.477 80.8749C121.087 80.662 120.553 80.5028 119.019 80.5028C118.263 80.5028 117.31 80.4172 116.447 80.3397C116.008 80.3003 115.593 80.263 115.238 80.2401ZM149.373 130.26C149.373 130.259 149.376 130.267 149.382 130.287C149.375 130.27 149.373 130.261 149.373 130.26ZM153.187 129.054C153.065 128.675 152.851 128.212 152.459 127.817C152.352 127.71 152.136 127.415 151.945 127.002C151.748 126.575 151.695 126.276 151.695 126.184C151.695 125.548 151.501 124.748 151.32 124.098C151.116 123.372 150.844 122.549 150.556 121.754C150.266 120.958 149.951 120.164 149.656 119.494C149.386 118.881 149.064 118.206 148.75 117.768C148.105 116.867 147.68 115.605 147.17 113.933C147.14 113.835 147.11 113.736 147.08 113.635C146.633 112.161 146.092 110.379 145.177 108.9C144.7 108.13 144.061 107.202 143.424 106.278C142.975 105.626 142.527 104.976 142.139 104.385C141.101 102.806 140.274 101.35 139.887 100.086C139.449 98.6546 138.765 97.5253 138.116 96.5613C137.913 96.2598 137.722 95.9861 137.542 95.7266C137.109 95.1055 136.734 94.5656 136.378 93.9201C136.165 93.5342 135.937 93.0958 135.694 92.6283C134.927 91.1562 134.01 89.3954 132.962 88.0788C132.262 87.1989 131.633 86.3301 130.979 85.4288C130.666 84.9965 130.348 84.5566 130.013 84.1044C129.011 82.7506 127.921 81.3636 126.606 80.0785C126.487 79.9619 126.369 79.846 126.252 79.7312C125.296 78.7897 124.412 77.9198 123.394 77.3638C122.112 76.6646 120.761 76.5028 119.019 76.5028C118.416 76.5028 117.816 76.447 117.109 76.3812C116.632 76.3368 116.106 76.2879 115.497 76.2484C114.189 76.1638 112.556 76.1379 111.108 76.658C109.167 77.3548 107.044 77.59 104.701 77.6739C103.86 77.704 102.938 77.7136 101.983 77.7237C100.451 77.7397 98.8376 77.7566 97.3526 77.8603C94.1476 78.0841 91.2398 79.1687 88.5467 80.4516C87.1999 81.0931 85.874 81.8008 84.587 82.4893L84.4973 82.5373C83.2285 83.216 81.9958 83.8755 80.7453 84.48C79.0197 85.314 77.1358 85.8636 75.0602 86.4691C74.8821 86.5211 74.7026 86.5734 74.5216 86.6264C72.3044 87.2758 69.8852 88.0172 67.6774 89.2783C65.271 90.653 62.811 91.2503 60.1376 91.3847C59.4646 91.4185 58.6078 91.7065 58.0852 92.5581C57.6462 93.2735 57.6857 94.0183 57.7407 94.4175C57.8535 95.2357 58.2593 96.1046 58.5884 96.7431C58.9497 97.4441 59.383 98.1693 59.7305 98.7504C60.1218 99.4049 60.3388 99.7741 60.412 99.9396C60.9864 101.239 61.6007 102.527 62.2061 103.797L62.2288 103.845C62.8456 105.138 63.4539 106.415 64.0297 107.717C65.5924 111.252 67.9582 114.26 70.272 117.025C70.6679 117.499 71.0611 117.963 71.4495 118.423C73.3852 120.711 75.2025 122.859 76.656 125.208C80.075 130.732 84.9348 134.187 89.3799 137.347C89.8262 137.665 90.2683 137.979 90.7043 138.292C93.3131 140.165 96.6897 140.484 99.6519 140.452C101.17 140.436 102.695 140.322 104.082 140.219C105.5 140.113 106.749 140.02 107.837 140.02C111.533 140.02 115.306 140.12 119.122 140.221C128.98 140.482 139.116 140.75 148.907 139.323L150.05 139.156L150.416 138.238C150.465 138.199 150.562 138.131 150.731 138.038C151.143 137.812 151.723 137.581 152.437 137.338C152.894 137.183 153.332 137.046 153.779 136.907C154.045 136.824 154.314 136.74 154.592 136.65C155.241 136.441 156.015 136.18 156.59 135.859C157.435 135.387 158.371 135.055 159.504 134.654C159.651 134.601 159.802 134.548 159.957 134.493C161.217 134.043 162.695 133.488 164.026 132.559C164.384 132.308 165.384 131.948 166.762 131.65C168.065 131.369 169.301 131.228 169.877 131.228C170.737 131.228 172.166 130.996 173.437 130.708C174.1 130.557 174.781 130.377 175.394 130.177C175.97 129.988 176.618 129.74 177.13 129.418C177.416 129.239 177.87 128.942 178.186 128.544C178.294 128.408 178.847 127.706 178.613 126.719C178.347 125.599 177.383 125.265 177.148 125.196C176.825 125.101 176.533 125.094 176.386 125.094C176.208 125.094 176.034 125.107 175.884 125.123C175.582 125.155 175.247 125.211 174.926 125.27C174.521 125.345 174.042 125.446 173.593 125.539C173.353 125.59 173.121 125.638 172.915 125.68C172.598 125.744 172.323 125.796 172.098 125.832C171.881 125.866 171.781 125.874 171.763 125.875C171.761 125.875 171.76 125.875 171.761 125.875C169.179 125.875 166.669 125.959 164.02 126.564C163.756 126.624 163.485 126.687 163.21 126.75C161.094 127.238 158.703 127.79 157.082 127.91C157.05 127.912 157.017 127.914 156.983 127.917C156.088 127.982 154.521 128.095 153.187 129.054Z" fill="#AAAAAA"/>
<path fill-rule="evenodd" clip-rule="evenodd" d="M85.9968 107.713C85.986 107.724 85.9743 107.738 85.9613 107.752C85.9229 107.796 85.8801 107.848 85.8264 107.913C85.8008 107.945 85.7748 107.977 85.7458 108.012L85.7419 108.017C85.7122 108.054 85.6795 108.094 85.6459 108.135C85.4902 108.326 85.3541 108.659 85.315 109.345C85.2959 109.68 85.3021 110.043 85.3173 110.463C85.3204 110.549 85.324 110.64 85.3278 110.735C85.341 111.066 85.3559 111.44 85.3559 111.786C85.3559 112.891 84.4604 113.786 83.3559 113.786C82.2513 113.786 81.3559 112.891 81.3559 111.786C81.3559 111.527 81.3455 111.264 81.3331 110.952C81.3288 110.844 81.3243 110.729 81.3199 110.607C81.3039 110.164 81.2913 109.647 81.3215 109.117C81.3809 108.075 81.6158 106.744 82.55 105.602C82.577 105.569 82.6081 105.53 82.6435 105.484C83.0494 104.965 84.026 103.715 85.8519 103.715C85.9422 103.715 86.0738 103.704 86.3012 103.674C86.3492 103.667 86.4074 103.659 86.4724 103.65C86.655 103.625 86.8907 103.592 87.101 103.57C87.6887 103.51 88.6343 103.459 89.5877 103.897C89.8501 104.018 90.1545 104.148 90.4845 104.289C91.4977 104.722 92.7524 105.258 93.7748 105.939C94.6938 106.552 94.9422 107.794 94.3295 108.713C93.7168 109.632 92.475 109.88 91.556 109.268C90.8631 108.806 90.135 108.495 89.2452 108.115C88.8444 107.943 88.4109 107.758 87.933 107.539C87.9138 107.536 87.8042 107.519 87.5123 107.549C87.3741 107.563 87.255 107.58 87.1054 107.601C87.0236 107.612 86.9326 107.625 86.8244 107.639C86.5978 107.669 86.3075 107.704 85.9968 107.713Z" fill="black"/>
<path fill-rule="evenodd" clip-rule="evenodd" d="M112.522 99.7957C112.373 99.6522 111.957 99.4881 111.399 99.6475C110.977 99.768 110.474 99.8784 110.093 99.9618C109.926 99.9985 109.783 100.03 109.681 100.055C109.297 100.148 109.004 100.243 108.724 100.387C108.701 100.417 108.676 100.454 108.653 100.494C108.629 100.535 108.613 100.568 108.604 100.587C108.211 101.487 108.022 102.505 108.022 103.556C108.022 104.661 107.127 105.556 106.022 105.556C104.918 105.556 104.022 104.661 104.022 103.556C104.022 102.041 104.292 100.464 104.939 98.9841C105.086 98.6497 105.292 98.2913 105.541 97.9639C105.774 97.6577 106.145 97.2459 106.661 96.9557C107.417 96.5302 108.123 96.3165 108.738 96.1674C109.034 96.0956 109.257 96.0478 109.458 96.005C109.738 95.9449 109.974 95.8946 110.3 95.8014C111.872 95.3523 113.992 95.5348 115.433 97.0515C116.112 97.7666 116.337 98.5408 116.456 98.9886C116.48 99.0782 116.497 99.1454 116.511 99.1994C116.537 99.3022 116.552 99.3574 116.575 99.4284C116.586 99.4616 116.593 99.4794 116.597 99.4868C117.202 100.405 116.953 101.641 116.036 102.252C115.117 102.865 113.876 102.616 113.263 101.697C112.853 101.083 112.685 100.4 112.613 100.107C112.604 100.071 112.597 100.041 112.59 100.017C112.555 99.8854 112.533 99.822 112.522 99.7957ZM112.514 99.7799C112.514 99.7795 112.516 99.7819 112.519 99.7885C112.516 99.7838 112.514 99.7804 112.514 99.7799Z" fill="black"/>
<path fill-rule="evenodd" clip-rule="evenodd" d="M121.269 108.976C122.374 108.976 123.269 109.871 123.269 110.976C123.269 111.913 122.878 112.818 122.702 113.224C122.68 113.275 122.662 113.318 122.648 113.352C122.616 113.429 122.594 113.531 122.51 113.917L122.5 113.961C122.434 114.266 122.307 114.845 122.005 115.387C121.771 115.809 121.611 116.394 121.466 117.234C121.431 117.436 121.395 117.672 121.356 117.926C121.258 118.566 121.142 119.324 120.983 119.961C120.387 122.347 119.007 124.082 117.304 125.476C115.343 127.08 113.442 127.824 111.415 128.599C109.838 129.202 107.949 129.521 106.544 129.748C105.511 129.914 104.529 129.976 103.527 129.976C101.503 129.976 99.4387 129.97 97.2254 129.542C95.4026 129.189 92.6848 128.333 90.9778 126.687C88.7246 124.514 88.7522 121.885 88.7732 119.882C88.7751 119.696 88.777 119.515 88.777 119.341C88.777 118.236 89.6724 117.341 90.777 117.341C91.8816 117.341 92.777 118.236 92.777 119.341C92.777 119.415 92.777 119.487 92.777 119.559C92.7761 121.951 92.7758 122.864 93.7543 123.807C94.6079 124.631 96.378 125.304 97.9855 125.615C99.7717 125.96 101.472 125.976 103.527 125.976C104.359 125.976 105.124 125.925 105.907 125.799C107.365 125.564 108.853 125.296 109.986 124.863C112.007 124.09 113.359 123.535 114.771 122.38C116.012 121.365 116.771 120.318 117.103 118.991C117.216 118.536 117.283 118.097 117.364 117.563C117.409 117.264 117.459 116.934 117.524 116.555C117.683 115.632 117.93 114.486 118.509 113.445C118.506 113.45 118.505 113.452 118.504 113.452C118.503 113.452 118.533 113.376 118.595 113.094C118.601 113.068 118.607 113.037 118.615 113.003C118.67 112.742 118.77 112.266 118.946 111.837C118.975 111.767 119.004 111.697 119.03 111.634L119.032 111.629C119.06 111.563 119.084 111.505 119.108 111.447C119.155 111.331 119.19 111.24 119.217 111.16C119.261 111.03 119.268 110.974 119.269 110.969C119.273 109.867 120.167 108.976 121.269 108.976Z" fill="black"/>
</svg>
