<svg width="287" height="60" viewBox="0 0 287 60" fill="none" xmlns="http://www.w3.org/2000/svg">
<path d="M247.359 2.62545L247.339 2.62907L247.318 2.63184C243.84 3.09605 237.931 2.89033 233.238 2.72695L233.153 2.724L232.664 2.70702L232.617 2.70536L232.569 2.69917C230.804 2.46819 227.364 2.39273 223.785 2.31812L223.61 2.31447C220.146 2.24232 216.586 2.16819 214.583 1.93053L214.551 1.92675L214.519 1.92094C212.577 1.56304 209.42 1.55631 206.202 1.65186C204.888 1.69089 203.561 1.74725 202.328 1.79962C200.614 1.87243 199.081 1.9375 198.019 1.9375H163.778C157.724 1.9375 151.475 2.34512 145.186 2.75569L145.168 2.75683C138.898 3.16621 132.588 3.57812 126.464 3.57812C118.906 3.57812 111.673 3.24121 104.455 2.90499L104.411 2.90293C97.1724 2.56573 89.9475 2.2299 82.3805 2.2299H64.1045C60.4393 2.2299 49.9981 2.23058 46.1779 2.49536L46.099 2.50082L46.0202 2.49382C45.192 2.4202 43.7867 2.27362 42.126 2.10039C40.7566 1.95756 39.2136 1.79661 37.6772 1.64351C34.2353 1.30052 30.8545 1 29.3402 1C27.3385 1 22.2014 1.11069 17.1769 1.52369C14.6633 1.7303 12.1996 2.01087 10.1791 2.38612C9.16836 2.57382 8.28687 2.7819 7.57426 3.00976C6.84364 3.24338 6.36595 3.47467 6.1051 3.67423C4.64333 4.79253 3.58263 6.51134 2.83441 8.69175C2.08662 10.8709 1.67462 13.4429 1.46536 16.176C1.1752 19.9656 1.27903 23.9208 1.37198 27.4618C1.41409 29.066 1.45397 30.5852 1.45397 31.9655V32.039L1.44321 32.1117C0.277094 39.9976 1.44368 46.74 4.55704 51.3571C7.6357 55.9226 12.7067 58.5464 19.7244 58.0872L19.757 58.0851H19.7897C26.1049 58.0851 33.1999 57.4502 40.4184 56.8042L40.5914 56.7887C47.8475 56.1394 55.2197 55.4844 61.9326 55.4844C65.3774 55.4844 67.4787 55.6163 68.9012 55.8245C70.3608 56.0381 71.1 56.3322 71.7927 56.6117L71.8136 56.6201C72.4232 56.8661 72.9917 57.0955 74.2035 57.275C75.4664 57.462 77.4301 57.5938 80.8092 57.5938H100.564C121.156 57.5938 139.114 57.7166 157.049 57.8394L157.103 57.8398C175.019 57.9625 192.914 58.0851 213.393 58.0851H239.651C241.364 58.0851 243.436 58.2398 245.628 58.4186C245.93 58.4432 246.234 58.4683 246.541 58.4935C248.477 58.6531 250.498 58.8197 252.497 58.9166C254.812 59.0289 257.063 59.0457 259.071 58.8543C261.09 58.6617 262.788 58.2648 264.04 57.5993C265.121 57.0254 266.627 56.6431 268.027 56.3536C268.742 56.2059 269.459 56.0767 270.116 55.9589L270.167 55.9497C270.81 55.8343 271.385 55.7312 271.864 55.6293C273.612 55.2579 275.047 54.5264 276.478 53.6317C276.983 53.3155 277.514 52.9602 278.065 52.5915C279.005 51.9623 280.003 51.2939 281.035 50.7138C283.257 49.4638 284.415 47.1977 285.002 44.4704C285.569 41.8389 285.568 38.9524 285.567 36.4752L285.567 36.1841C285.567 34.8513 285.648 33.1035 285.74 31.1353C285.795 29.9677 285.853 28.7226 285.9 27.4406C286.028 23.958 286.077 20.1288 285.774 16.5553C285.469 12.9629 284.816 9.72781 283.598 7.37982C282.405 5.07738 280.726 3.71313 278.298 3.57655C275.435 3.41549 273.172 2.94085 271.025 2.49058C270.84 2.45178 270.656 2.41316 270.472 2.37494C268.16 1.89351 265.912 1.46875 262.989 1.46875C262.202 1.46875 261.489 1.46572 260.828 1.46292C256.112 1.44288 254.117 1.43441 247.359 2.62545Z" fill="black" stroke="black" stroke-width="2" stroke-linecap="round"/>
</svg>
