<svg width="59" height="59" viewBox="0 0 59 59" fill="none" xmlns="http://www.w3.org/2000/svg">
<path d="M3.24799 13.5193C3.24799 25.1862 3.24799 36.8531 3.24799 48.5201C3.24799 58.2762 14.2514 56.938 21.5813 56.938C29.4515 56.938 37.465 57.2053 44.6677 55.1166C46.2083 54.6698 53.6545 52.5902 53.8829 50.7353C54.0839 49.1029 55.6289 48.1316 55.6289 46.3048C55.6289 44.0634 56.502 42.0387 56.502 39.6591C56.502 31.9904 57.375 23.4305 57.375 15.2914C57.375 13.0083 56.124 5.73031 53.0099 5.54439C50.5524 5.39766 42.3924 5.36514 40.7877 3.32914C39.9159 2.22314 30.6502 2 29.002 2C24.9963 2 20.7704 2.6739 17.2162 2.8861C12.9521 3.14069 10.3021 4.59329 6.30354 5.49516C3.63502 6.09705 4.121 6.68661 4.121 9.53182C4.121 11.5757 3.02398 13.3152 2.37497 15.2914" stroke="white" stroke-width="3" stroke-linecap="round"/>
<path d="M25.7496 19.0512C22.6637 19.6624 19.4117 21.2361 18.3528 24.4603C17.8233 26.0726 17.1971 27.5112 17.1971 29.2569C17.1971 31.5813 17.1971 33.9057 17.1971 36.2301C17.1971 37.6787 17.0812 39.2828 18.1216 40.4009C19.2228 41.5844 20.2245 42.7833 21.7045 43.4509C23.1161 44.0877 24.3231 44.1547 25.9293 44.1547C26.9912 44.1547 29.7629 43.5646 30.5908 42.8644C31.1772 42.3684 32.1471 42.2939 32.7996 41.9259C33.4275 41.5719 34.2161 41.1696 34.8799 40.8702C35.9548 40.3853 36.9154 38.9215 37.7693 38.0548C38.8117 36.9968 39.3074 34.8226 39.3873 33.3626C39.4959 31.38 39.6185 29.3273 39.6185 27.2757C39.6185 25.7228 38.8633 23.6729 38.3343 22.2576C37.9861 21.3258 37.4235 19.5806 36.5108 19.0512C35.1083 18.2378 34.3587 17.8782 32.684 17.8782C31.2586 17.8782 29.8332 17.8782 28.4078 17.8782C27.3462 17.8782 26.1914 19.0512 25.0561 19.0512" stroke="white" stroke-width="3" stroke-linecap="round"/>
<path d="M44.2415 13.186C42.066 13.6169 41.6988 14.2491 41.6988 16.3533C41.6988 17.8388 43.0122 18.2521 44.2415 17.5915C44.8643 17.2568 46.4541 14.7159 45.2688 14.3721C43.6764 13.9103 43.548 15.7789 43.548 16.9398" stroke="white" stroke-width="3" stroke-linecap="round"/>
</svg>
