<svg width="258" height="226" viewBox="0 0 258 226" fill="none" xmlns="http://www.w3.org/2000/svg">
<path d="M103.803 74.5735C93.789 77.9782 85.9414 82.3291 79.945 91.166C76.6984 95.9505 76.5146 103.024 76.4106 108.642C76.1917 120.458 76.4058 137.669 85.2468 147.031C89.6614 151.705 93.4611 157.09 98.8938 160.678C104.892 164.639 115.251 169.121 122.555 169.121C131.832 169.121 138.417 167.35 146.904 164.016C151.718 162.124 157.119 155.568 160.747 151.94C164.736 147.951 165.656 143.668 165.656 138.194C165.656 133.251 166.695 127.075 165.215 122.338C162.391 113.301 158.762 106.419 152.893 98.8731C141.104 83.7163 122.555 71.9226 102.919 71.9226" stroke="black" stroke-width="5" stroke-linecap="round"/>
<path d="M94.083 123.173C93.0377 117.816 93.1617 109.918 100.71 109.918C104.859 109.918 108.221 112.247 108.221 116.987" stroke="black" stroke-width="5" stroke-linecap="round"/>
<path d="M98.5011 134.66C98.5011 132.778 96.9608 124.502 100.268 126.707" stroke="black" stroke-width="5" stroke-linecap="round"/>
<path d="M126.777 116.987C129.83 111.004 132.231 107.267 139.344 107.267C142.362 107.267 144 108.135 145.333 110.802" stroke="black" stroke-width="5" stroke-linecap="round"/>
<path d="M134.73 126.707C138.049 118.617 135.368 127.739 136.693 130.242C138.468 133.594 139.576 127.792 138.264 125.824" stroke="black" stroke-width="5" stroke-linecap="round"/>
<path d="M115.29 123.173C115.816 125.87 118.335 136.678 115.683 138.194C110.019 141.431 121.848 141.729 123.243 141.729" stroke="black" stroke-width="5" stroke-linecap="round"/>
<path d="M117.941 153.216C123.913 154.381 128.725 154.863 133.846 151.449" stroke="black" stroke-width="5" stroke-linecap="round"/>
<path d="M164.773 113.453C169.546 112.521 176.562 111.942 177.978 118.313C179.169 123.672 175.314 123.298 173.609 126.707" stroke="black" stroke-width="5" stroke-linecap="round"/>
<path d="M75.5268 120.522C71.4584 121.316 63.2274 124.101 66.2979 130.242C68.5189 134.684 76.7951 135.159 79.9449 132.009" stroke="black" stroke-width="5" stroke-linecap="round"/>
<path d="M101.152 86.0605C98.1736 82.9918 95.8607 79.8798 91.874 78.1079C90.4144 77.4592 89.4544 76.8033 88.7813 75.457" stroke="black" stroke-width="5" stroke-linecap="round"/>
<path d="M124.126 77.2243C123.787 75.4456 121.852 68.6415 124.126 67.5045" stroke="black" stroke-width="5" stroke-linecap="round"/>
<path d="M114.406 81.6424C110.143 77.1124 109.988 73.2959 109.988 67.5045" stroke="black" stroke-width="5" stroke-linecap="round"/>
<path d="M149.751 170.888C158.61 182.582 148.198 196.579 137.381 203.19C131.301 206.905 124.079 210.858 117.057 212.419C116.509 212.54 110.705 213.568 111.461 212.811C113.301 210.971 115.557 210.251 117.057 208.001" stroke="black" stroke-width="5" stroke-linecap="round"/>
<path d="M130.312 183.259C131.613 189.931 128.879 194.633 123.684 198.673C122.366 199.698 119.695 201.815 117.941 201.815C116.327 201.815 114.555 200.048 112.59 200.048C110.085 200.048 106.292 199.425 104.294 201.422C103.296 202.42 103.441 206.188 104.687 206.92C106.683 208.095 117.057 215.296 117.057 210.651" stroke="black" stroke-width="5" stroke-linecap="round"/>
<path d="M96.7338 176.19C94.3591 183.463 91.2161 188.664 84.3631 192.292C80.2621 194.463 81.3391 192.178 77.785 191.163C73.8151 190.028 74.6786 191.592 75.4778 195.188C76.0882 197.935 76.3074 201.125 79.0613 202.502C82.1925 204.068 87.5354 205.185 90.9902 204.417C94.1069 203.724 93.993 198.736 95.1629 196.513C97.5568 191.965 102.832 188.648 106.454 185.026" stroke="black" stroke-width="5" stroke-linecap="round"/>
<path d="M153.286 169.121C159.653 174.294 164.422 185.79 166.933 193.323C168.45 197.874 170.113 204.966 172.725 208.884" stroke="black" stroke-width="5" stroke-linecap="round"/>
<path d="M88.7813 204.466C90.835 209.857 93.1994 217.206 93.1994 223.022" stroke="black" stroke-width="5" stroke-linecap="round"/>
<path d="M4.83709 39.2286C3.31911 43.9723 2.7953 48.4248 3.06984 53.3665C3.33204 58.0861 8.57071 53.011 9.05884 50.912C9.6292 48.4595 11.4077 43.8617 8.37158 42.0758C5.72717 40.5203 4.34854 40.9023 5.72071 43.6467" stroke="black" stroke-width="5" stroke-linecap="round"/>
<path d="M14.5569 33.0432C19.0586 40.9212 20.7422 68.6254 20.7422 59.5518C20.7422 55.2646 20.7422 50.9774 20.7422 46.6902C20.7422 44.1872 22.1153 44.3671 24.2767 43.6466" stroke="black" stroke-width="5" stroke-linecap="round"/>
<path d="M42.8328 27.7415C42.3888 30.5169 40.3602 43.2281 45.8764 36.1359C48.9999 32.12 46.0376 24.081 42.391 31.3741C39.2267 37.7028 42.4859 43.0509 42.8328 48.9484C43.0494 52.6309 44.9263 51.4153 48.1346 50.912C49.2287 50.7404 58.2383 49.832 55.2035 49.832" stroke="black" stroke-width="5" stroke-linecap="round"/>
<path d="M49.0181 30.3923C50.4742 31.8484 54.1028 38.9465 56.578 36.9213C59.193 34.7817 62.5674 31.2022 65.807 30.3923" stroke="black" stroke-width="5" stroke-linecap="round"/>
<path d="M53.4364 42.763C57.6398 40.9194 61.5061 38.895 65.8071 37.4613" stroke="black" stroke-width="5" stroke-linecap="round"/>
<path d="M61.3889 45.4139C68.9051 44.0986 64.138 46.7765 64.138 50.2738C64.138 52.1304 68.9838 49.1379 69.3415 48.0648" stroke="black" stroke-width="5" stroke-linecap="round"/>
<path d="M84.3631 24.207C88.2394 27.4776 87.9331 29.7065 85.9339 33.9268C85.1596 35.5615 84.3631 36.1498 84.3631 33.9268" stroke="black" stroke-width="5" stroke-linecap="round"/>
<path d="M86.1305 28.6251C88.7481 30.2212 92.1802 31.7527 93.1995 34.8104" stroke="black" stroke-width="5" stroke-linecap="round"/>
<path d="M93.1994 23.3233C95.0477 25.9418 97.1025 29.7815 97.5684 33.0432C97.7372 34.2246 97.6175 36.4382 97.6175 33.9268" stroke="black" stroke-width="5" stroke-linecap="round"/>
<path d="M97.6174 29.5087L102.036 27.7415" stroke="black" stroke-width="5" stroke-linecap="round"/>
<path d="M91.4322 40.1122C93.5015 42.9265 94.439 47.7124 98.5012 47.1321C101.201 46.7463 103.39 45.0998 105.57 43.6467" stroke="black" stroke-width="5" stroke-linecap="round"/>
<path d="M74.6433 27.7415C78.0344 24.2444 81.8017 20.186 86.1304 18.0216" stroke="black" stroke-width="5" stroke-linecap="round"/>
<path d="M105.57 20.6724C104.606 25.7371 105.582 27.2422 106.405 31.7668C106.621 32.9586 106.843 36.4011 107.534 37.2649C108.739 38.7708 114.583 35.3403 115.29 33.9268" stroke="black" stroke-width="5" stroke-linecap="round"/>
<path d="M105.57 24.2069C107.229 22.0177 110.619 19.4112 111.756 17.1379" stroke="black" stroke-width="5" stroke-linecap="round"/>
<path d="M114.406 15.3707C122.163 21.4306 120.868 33.458 125.893 40.9958" stroke="black" stroke-width="5" stroke-linecap="round"/>
<path d="M132.079 14.4871C132.171 18.2521 132.661 22.4206 133.846 25.9742" stroke="black" stroke-width="5" stroke-linecap="round"/>
<path d="M132.962 18.9052C136.119 16.5139 143.566 11.0965 143.566 18.9052C143.566 23.751 140.72 24.4161 136.104 25.2869C133.894 25.7039 131.749 26.3367 129.673 27.2014C129.403 27.3141 132.802 26.164 133.846 25.9742C134.812 25.7986 139.91 23.9133 140.031 25.9742C140.317 30.8243 140.22 32.4607 135.417 34.1232C129.963 36.0111 143.374 29.9399 141.602 33.9268C140.557 36.2799 139.257 38.3279 137.871 40.5049C136.955 41.9444 136.424 45.094 135.417 46.1012C134.712 46.8064 134.643 42.8463 134.779 42.3703C135.21 40.8598 137.067 40.9958 138.264 40.9958C141.295 40.9958 144.244 41.262 145.333 44.5303" stroke="black" stroke-width="5" stroke-linecap="round"/>
<path d="M153.286 13.6035C153.874 17.2056 155.092 21.9262 152.402 25.0906C151.539 26.1064 149.746 29.4992 148.868 27.7414" stroke="black" stroke-width="5" stroke-linecap="round"/>
<path d="M149.751 22.4397C153.134 23.1824 156.884 25.0906 160.355 25.0906" stroke="black" stroke-width="5" stroke-linecap="round"/>
<path d="M162.122 4.76727C166.32 10.6447 167.424 18.8188 167.424 25.9742" stroke="black" stroke-width="5" stroke-linecap="round"/>
<path d="M153.286 33.9268C155.434 37.6857 156.82 41.9325 156.82 46.2975" stroke="black" stroke-width="5" stroke-linecap="round"/>
<path d="M154.169 40.9958C160.518 36.8877 169.191 32.3553 169.191 42.7631C169.191 47.9917 160.57 48.0648 156.82 48.0648" stroke="black" stroke-width="5" stroke-linecap="round"/>
<path d="M178.911 15.3707C175.949 19.1656 175.376 20.6231 175.376 25.0906C175.376 26.6287 174.949 29.6988 177.585 28.5269C178.878 27.9522 180.598 24.7545 180.678 23.3233C180.794 21.2314 179.303 19.6008 179.303 18.0216C179.303 13.9381 197.467 7.24812 197.467 10.5599C197.467 15.698 197.467 20.8361 197.467 25.9742" stroke="black" stroke-width="5" stroke-linecap="round"/>
<path d="M185.096 27.7415C185.975 32.2477 185.98 41.4867 185.98 41.4867C185.98 41.4867 187.048 38.1606 188.238 36.9704C190.34 34.8686 192.271 33.0274 194.816 31.4723C196.248 30.5969 195.7 24.8355 195.7 26.5142C195.7 28.4615 195.7 30.4087 195.7 32.3559C195.7 36.1848 203.512 36.1147 204.536 33.0432" stroke="black" stroke-width="5" stroke-linecap="round"/>
<path d="M202.769 20.6725C206.453 17.1924 210.692 14.9435 215.139 12.7198" stroke="black" stroke-width="5" stroke-linecap="round"/>
<path d="M204.536 16.2543C204.536 17.4656 203.377 30.2202 206.303 30.3923C209.66 30.5898 212.55 27.269 215.139 25.9742" stroke="black" stroke-width="5" stroke-linecap="round"/>
<path d="M223.976 3C225.74 12.0413 226.964 21.2652 228.197 30.3923C228.712 34.2036 229.277 45.7253 229.277 41.8794" stroke="black" stroke-width="5" stroke-linecap="round"/>
<path d="M226.627 23.3233C230.722 21.2339 234.643 18.5894 238.997 17.1379" stroke="black" stroke-width="5" stroke-linecap="round"/>
<path d="M242.532 32.1595V37.4613" stroke="black" stroke-width="5" stroke-linecap="round"/>
<path d="M247.833 31.2759C247.833 33.0619 246.972 36.5889 248.717 37.4613" stroke="black" stroke-width="5" stroke-linecap="round"/>
<path d="M254.019 32.1595C254.42 34.2143 254.902 36.2453 254.902 38.3449" stroke="black" stroke-width="5" stroke-linecap="round"/>
</svg>
