<svg width="292" height="279" viewBox="0 0 292 279" fill="none" xmlns="http://www.w3.org/2000/svg">
<ellipse cx="141.046" cy="127.5" rx="124.095" ry="127.5" fill="#F2CDA1"/>
<path d="M80.7898 111.685C82.0472 108.717 85.715 103.595 89.3028 103.145C90.6098 102.981 91.3873 101.721 92.8499 101.721C94.5456 101.721 96.055 102.433 97.4611 102.433C99.6496 102.433 102.901 105.876 103.452 107.81C104.22 110.507 104.91 115.089 104.91 109.55" stroke="black" stroke-width="3" stroke-linecap="round"/>
<path d="M171.592 111.686C175.207 106.699 178.493 101.927 185.387 103.185C191.576 104.314 193.584 105.877 193.584 112.398" stroke="black" stroke-width="3" stroke-linecap="round"/>
<path d="M90.7214 130.902C90.7214 131.937 89.935 137.111 91.4308 137.861C92.1104 138.202 93.1854 135.864 93.7167 135.331C94.1287 134.917 96.5049 133.538 96.2391 133.195C95.5534 132.311 94.3141 131.189 93.2044 130.942C91.0285 130.457 90.4486 137.308 92.495 137.308C94.828 137.308 97.3291 132.788 92.8497 133.037C84.4921 133.503 91.0591 144.406 95.6873 136.28C96.8617 134.218 95.1078 131.614 92.495 131.614C88.3278 131.614 89.3026 134.635 89.3026 138.019" stroke="black" stroke-width="3" stroke-linecap="round"/>
<path d="M180.814 130.19C181.001 137.889 189.511 135.643 187.869 129.874C186.83 126.227 176.459 134.461 183.652 134.461C185.984 134.461 186.489 133.169 186.489 130.902C186.489 128.39 182.032 129.137 181.563 131.258C181.123 133.241 181.462 135.835 183.1 137.15C184.621 138.37 186.489 132.443 186.489 131.258C186.489 127.289 178.448 130.171 178.686 134.461C178.869 137.77 187.199 135.912 187.199 131.97C187.199 129.337 184.703 130.19 182.587 130.19C179.858 130.19 179.968 132.142 180.104 134.461C180.38 139.154 191.316 132.326 182.942 132.326" stroke="black" stroke-width="3" stroke-linecap="round"/>
<path d="M144.638 116.668C144.638 129.419 148.185 141.323 148.185 154.034C148.185 159.298 147.136 162.111 143.928 166.133C141.979 168.578 135.005 162.931 132.578 162.931" stroke="black" stroke-width="3" stroke-linecap="round"/>
<path d="M124.063 195.67C128.041 205.061 137.401 205.917 141.799 197.093" stroke="black" stroke-width="3" stroke-linecap="round"/>
<path d="M115.725 247.365C104.043 247.365 96.0308 246.404 86.9246 239.298C80.6367 234.392 70.0399 230.825 65.8374 223.657C58.6417 211.385 46.8922 202.647 41.5502 189.248C38.2618 181 30.0412 172.601 28.6681 163.647C27.4539 155.729 26.1988 144.922 23.0066 137.716C20.398 131.828 21.2015 122.793 21.2015 116.231C21.2015 108.329 21.2015 100.426 21.2015 92.5233C21.2015 76.4941 33.0641 68.4443 40.4015 55.5621C46.7575 44.4028 66.2411 33.9566 77.3246 28.3968C88.6273 22.727 99.755 7.37765 112.771 5.84139C128.81 3.94826 144.587 5.84139 160.689 5.84139C176.879 5.84139 191.3 15.6936 206.555 19.0948C219.898 22.0695 233.297 36.5953 239.786 47.9887C247.375 61.3125 251.602 75.28 251.602 91.0416C251.602 105.205 255.238 119.727 256.032 133.271C256.847 147.159 260.472 163.712 254.227 176.242C247.905 188.927 235.271 196.435 229.448 209.581C226.702 215.78 222.67 220.495 219.438 226.621C216.07 233.002 209.984 235.471 205.817 240.698C202.547 244.798 175.199 255.572 173.325 251.811" stroke="black" stroke-width="3" stroke-linecap="round"/>
<path d="M24.1539 131.789C20.5842 129.693 2 116.523 2 129.567C2 137.431 3.47692 144.414 3.47692 151.793C3.47692 163.855 10.8208 177.723 24.1539 177.723" stroke="black" stroke-width="3" stroke-linecap="round"/>
<path d="M254.554 121.417C261.703 111.554 268.052 105.283 278.923 114.008C285.892 119.602 290 126.545 290 135.493C290 142.926 281.379 153.58 277.856 159.942C275.864 163.541 270.005 166.882 266.369 168.503C263.646 169.718 255.545 171.288 254.554 173.278" stroke="black" stroke-width="3" stroke-linecap="round"/>
<path d="M109.816 248.847C126.585 248.847 124.586 258.87 124.586 272.555" stroke="black" stroke-width="3" stroke-linecap="round"/>
<path d="M171.846 254.774C170.112 263.686 171.846 268.934 171.846 277" stroke="black" stroke-width="3" stroke-linecap="round"/>
</svg>
